<?xml version="1.0" standalone="no"?> <!DOCTYPE svg PUBLIC "-//W3C//DTD SVG 1.0//EN" "http://www.w3.org/TR/2001/REC-SVG-20010904/DTD/svg10.dtd" > <svg xmlns="http://www.w3.org/2000/svg" width="100%" height="100%">
<defs >
<font id="MARI&DAVID" horiz-adv-x="754" ><font-face
    font-family="MARI&DAVID"
    units-per-em="1000"
    panose-1="0 0 0 0 0 0 0 0 0 0"
    ascent="750"
    descent="-250"
    alphabetic="0" />
<missing-glyph horiz-adv-x="152" />
<glyph unicode=" " glyph-name="space" horiz-adv-x="152" />
<glyph unicode="!" glyph-name="exclam" horiz-adv-x="167" d="M43 770Q50 776 56 780Q61 783 67 784T78 781Q83 781 88 779T100 775Q106 772 114 770Q111 681 108 610Q107 580 106 551T104 498T103 459T102 442Q102 437 104 416T108 370T112 321T114 288Q114
284 115 262T118 213T119 163T114 136Q110 132 106 131Q98 128 90 136Q81 136 68 137T55 148Q50 153 48 171T44 211Q42 236 43 266V558Q43 563 45 578T49 610Q52 629 55 653V746L43 770ZM43 19Q47 6 56 -5Q64 -14 77 -21T114 -28Q131 -28 140 -24T154 -13T159 2T160
19Q155 28 148 36T131 51T114 62T102 66Q84 66 70 59T55 43Q46 34 44 26Q42 22 43 19Z" />
<glyph unicode="#" glyph-name="numbersign" horiz-adv-x="590" d="M537 245Q544 241 550 237Q555 233 559 229T563 220Q563 210 561 205T556 197Q553 194 550 194H396L371 -11Q366 -15 361 -18Q356 -20 349 -22T332 -24Q327 -24 321 -22T310 -16T304 -8T307 2Q307
12 309 19T313 31Q316 36 319 40L345 194L204 207L191 15Q191 7 188 2Q186 -3 181 -7T166 -11Q146 -1 137 2T127 15Q137 25 138 34T140 53L153 207H63Q49 211 39 218Q31 224 26 234T25 258H37L153 271L178 386V425V451H25Q18 462 14 472Q10 480 9 488T12 502H191L204
592V604L243 758Q247 761 251 764Q255 766 259 768T268 771Q288 761 291 752T294 733L281 707L255 540V502H332Q337 502 346 504T363 508Q373 511 384 515Q391 530 396 542Q401 553 405 563T409 579Q409 584 413 608T422 661Q427 694 435 733Q435 743 438 750Q440
756 445 759T460 758Q470 758 477 754T489 745Q494 740 499 733L448 515H550Q557 507 563 500Q568 494 572 488T576 476Q571 476 569 474T565 469Q563 466 563 463H448L396 245H537ZM371 361Q371 370 373 385T377 415Q380 432 384 451H230Q223 396 219 354Q217
336 216 319T214 288T213 266T217 258H294L307 245H332H345Q349 274 353 298Q357 318 361 337T371 361Z" />
<glyph unicode="$" glyph-name="dollar" horiz-adv-x="350" d="M100 610Q97 606 94 601Q92 596 90 590T88 576Q92 567 100 550T117 515T133 481T146 462Q146 454 148 450T152 443Q155 440 158 440Q170 432 188 414T226 369T263 312T294 246Q307 216 312 186T318
130Q319 101 316 75Q308 50 273 28T169 -4Q135 -4 115 5T84 27T70 53T67 75Q62 84 60 101T58 137T60 170T67 190Q75 198 77 194T88 190Q97 190 106 183T124 166Q120 147 119 129Q117 114 118 99T124 75Q124 58 139 56T180 53Q206 53 223 68T249 111Q253 119 250
136T242 175T231 218T225 257Q225 274 207 300T166 351T120 398T88 428Q80 437 69 463T47 521T29 580T21 622Q25 639 34 659T57 697T90 728T134 747Q164 747 193 736T245 710T285 680T306 656Q310 648 312 620T315 562Q316 527 316 485Q312 482 308 479Q303 477
297 475T282 473Q274 473 269 475T258 479Q253 482 249 485V634Q249 642 230 661T169 689Q143 694 130 682T109 654Q101 636 100 610ZM190 774L203 762V679V484V457V428V223L217 14V-55Q217 -60 213 -63T202 -67T188 -69T175 -69Q164 -74 157 -73T144 -67Q138 -63
134 -55L147 -28L134 -13V97V346V428Q134 431 134 443T136 473T138 513T140 559Q143 613 147 679H134V706V774Q139 779 145 782T159 787Q167 789 175 789L190 774Z" />
<glyph unicode="%" glyph-name="percent" horiz-adv-x="338" d="M268 752Q271 751 273 749Q277 745 276 737Q285 734 287 728Q288 724 287 721L239 486Q209 351 184 245Q173 200 163 156T145 77T132 19T126 -6Q117 -4 107 -3T85 -8Q80 -7 77 -2T71 9Q68 15 67
23L98 146L174 490L177 501L209 624L240 746L268 752ZM116 608Q128 600 137 582T147 552Q147 533 131 515T91 496Q60 496 43 511T25 557Q25 571 33 580T53 596Q65 603 81 608H116ZM91 537Q77 537 72 541T64 552Q62 559 65 568Q67 571 70 574Q76 580 76 583Q80 583
84 582Q87 581 90 581T96 578Q100 574 103 567T106 554T104 542T91 537ZM116 608Q128 600 137 582T147 552Q147 533 131 515T91 496Q60 496 43 511T25 557Q25 571 33 580T53 596Q65 603 81 608H116ZM91 537Q77 537 72 541T64 552Q62 559 65 568Q67 571 70 574Q76
580 76 583Q80 583 84 582Q87 581 90 581T96 578Q100 574 103 567T106 554T104 542T91 537ZM299 298Q311 290 320 272T330 242Q330 223 314 205T274 186Q243 186 226 201T208 247Q208 261 216 270T236 286Q248 293 264 298H299ZM274 227Q283 227 286 232T290 243T286
257T279 268Q277 270 274 270T267 272Q263 273 259 273Q259 270 253 264Q250 261 248 258Q245 249 247 242Q249 236 254 232T274 227Z" />
<glyph unicode="&amp;" glyph-name="ampersand" horiz-adv-x="353" d="M312 217Q322 217 323 214T325 191Q320 186 312 168T295 130Q285 106 275 78L299 17Q299 12 297 6T292 -7T284 -17T275 -22H249Q244 -22 240 -17T232 -3Q228 6 225 17Q211 9 197 2Q185 -4
172 -10T149 -22Q140 -22 123 -17T87 -3T51 21T25 54Q15 92 15 134T25 204Q25 218 36 247T62 306T87 361T99 391L86 417Q75 452 67 485Q60 513 55 542T49 591Q49 629 50 661T62 704Q72 722 87 731T112 741H136Q136 751 150 751T175 741Q196 729 214 716Q229 704
243 689T262 654Q262 635 260 613T254 568T246 525T236 491Q232 482 222 469T202 444T183 420T175 404Q175 401 177 390T184 363T194 327T205 286Q218 238 236 178Q240 189 244 199Q248 207 252 215T262 228Q272 238 287 232T312 217ZM149 691Q135 691 127 683T116
660T112 628T115 591Q120 547 136 491Q144 498 151 507Q163 521 175 541Q179 551 183 564T189 593T192 624T186 654Q181 668 175 675T163 686Q156 690 149 691ZM149 41Q163 46 174 56T194 77Q204 89 212 104Q202 125 192 143Q184 158 176 172T162 191Q162 196 158
206T149 229T140 251T136 267V304H125Q114 268 105 235Q97 206 92 177T86 128Q86 90 103 66T149 41Z" />
<glyph unicode="(" glyph-name="parenleft" horiz-adv-x="225" d="M175 771Q178 768 181 764Q183 760 185 756T185 745Q183 739 175 723T158 688T139 650T126 620Q122 609 117 584T106 527T97 461T91 397Q89 368 94 330T104 257Q110 217 119 176L173 51L179 39Q181
34 183 29T185 19Q185 13 178 2T159 -14Q147 -19 134 -15Q128 -14 122 -11L105 34L79 79Q71 107 63 133Q56 155 49 178T38 215Q34 228 32 238T28 268T26 322T25 420Q25 483 39 543T73 650T109 728T131 764Q136 768 142 769T157 771H175V771Z" />
<glyph unicode=")" glyph-name="parenright" horiz-adv-x="231" d="M48 726Q46 736 51 745Q54 749 58 752H75Q82 751 89 750T102 745Q107 740 124 710T160 632T193 524T208 401Q208 338 208 304T206 250T202 220T195 196Q190 182 184 159T170 114Q162 88 154 60L128
15L111 -30Q104 -33 98 -34Q86 -37 74 -33Q62 -28 55 -17T48 0Q48 5 50 10T54 20L60 32L114 157Q123 198 129 238Q134 272 138 310T142 378Q140 408 136 442T127 507T117 564T107 601Q103 612 94 630T76 668T58 704T48 726Z" />
<glyph unicode="+" glyph-name="plus" horiz-adv-x="565" d="M503 275Q507 256 504 245T493 234Q492 233 478 232T439 230T384 228T320 226Q322 174 322 134T320 80Q316 64 307 55T288 39Q277 32 264 29L254 34L243 39L248 80L243 85L239 224Q186 222 145 222T90
224Q74 228 65 237T49 256Q42 267 39 280L44 290L49 301L90 296L95 301L237 305L233 406Q232 416 231 426Q230 434 230 442T233 457Q240 479 269 493Q288 497 299 494T310 483Q311 482 312 467T314 428T316 373T318 307L416 311Q426 312 436 313Q453 315 467 311Q489
304 503 275Z" />
<glyph unicode="," glyph-name="comma" horiz-adv-x="225" d="M87 136Q95 136 104 134Q112 132 121 130T142 122Q158 117 166 106T179 82Q183 68 184 52H198Q198 48 196 44Q194 40 192 35T184 25Q184 14 171 -5T142 -42Q124 -64 100 -87Q92 -95 85 -101Q78 -106
71 -110T59 -115Q54 -120 51 -120T45 -120T39 -117T31 -115Q26 -110 24 -105T19 -96Q17 -92 17 -87L100 -17L114 11Q106 11 100 13Q87 17 87 25Q77 25 68 32Q64 35 59 39L45 52Q45 57 43 60T40 68T39 77T45 94Q45 105 51 112T66 125Q75 131 87 136Z" />
<glyph unicode="-" glyph-name="hyphen" horiz-adv-x="535" d="M34 288L39 299L80 294L85 299L279 304L406 309Q416 310 426 311Q443 313 457 309Q479 302 493 273Q497 254 494 243T483 232Q482 231 455 230T387 227T297 224T204 222T125 221T80 222Q64 226 55
235T39 254Q32 265 29 278L34 288Z" />
<glyph unicode="." glyph-name="period" horiz-adv-x="228" d="M119 138Q127 138 136 137T162 128Q170 120 175 115T184 102T193 83T206 50Q210 30 199 18T172 -3Q154 -12 130 -16Q122 -24 105 -23T64 -4Q47 0 39 5T26 17T21 29T20 39Q20 43 21 52T26 73T33 96T42
116Q42 124 52 128T74 135Q88 138 107 138H119Z" />
<glyph unicode="0" glyph-name="zero" horiz-adv-x="319" d="M315 636V624L303 322V250V225V165Q303 144 300 124Q298 107 293 89T279 56Q270 29 243 13T170 -4Q147 -9 131 -5T101 8T75 29T49 56Q44 60 41 73T36 106T31 147T28 192Q25 245 25 310L37 455V540V636Q37
640 37 650T38 672T42 694T49 709Q58 727 73 736T97 745H122Q127 745 132 747T144 751L158 757H194Q203 757 213 756T242 745Q256 736 267 726T286 706Q296 695 303 685L315 636ZM170 44Q206 49 221 73T242 127Q247 160 242 201V310V648Q238 655 233 662Q223 675
206 685Q197 694 189 699T173 706Q165 709 158 709Q147 709 138 706Q130 704 123 699T110 685Q110 675 108 657T103 621Q100 600 97 576V370V201Q95 156 102 122Q105 107 110 93T123 68T142 51T170 44Z" />
<glyph unicode="1" glyph-name="one" horiz-adv-x="134" d="M64 756Q66 754 68 753T70 746Q75 746 77 744T82 739Q84 736 84 733L97 493Q100 355 103 246Q104 199 105 154T107 73T108 14T109 -11Q100 -11 91 -12T70 -23Q65 -23 61 -20T53 -11Q49 -6 45 2V129L33
481V493V620V746L58 758L64 756Z" />
<glyph unicode="2" glyph-name="two" horiz-adv-x="350" d="M15 604Q18 608 21 612Q23 616 25 620T27 630Q27 635 34 648T52 676T76 707T104 732Q118 746 138 752T177 760Q198 762 221 758Q269 753 291 725T317 657T315 572T298 488Q295 468 287 440T266 378T239
308T209 237Q174 155 130 64H259Q269 64 283 61T298 38Q298 24 294 16T283 5T271 1T259 0Q249 -5 228 -6T185 -5Q159 -3 130 0Q119 -4 108 -7Q98 -9 87 -11T67 -13Q57 -18 52 -15T44 -4T41 12T40 26Q40 30 46 43T61 70T78 98T92 116Q92 119 100 144T122 206T151
286T181 368T206 436T221 476Q225 490 227 516T231 568T233 616T233 643Q233 652 231 663T222 683T207 699T182 706Q167 711 152 700T123 671T101 638T92 616Q87 611 86 597T85 566T85 534T79 514Q79 504 72 490T53 476Q43 476 38 479T30 488Q27 493 27 501L15
604V604Z" />
<glyph unicode="3" glyph-name="three" horiz-adv-x="380" d="M34 667Q45 682 55 696Q63 708 71 721T85 744Q95 749 114 755T159 763T218 762T290 744Q328 729 343 691T360 606T359 517T354 449Q349 429 337 409T311 372Q295 353 277 334Q306 310 321 273T344
198T353 131T354 90Q349 85 334 71T294 40T240 8T175 -12Q141 -17 117 -3T77 30T54 67T46 90Q46 95 50 100T61 108T73 114T85 117Q95 117 109 114T123 90Q123 85 129 77T147 62T172 52T200 53Q219 57 233 72T258 108T272 151T277 193Q277 212 267 232T245 270Q231
290 213 309H123Q104 309 96 324T98 359Q98 369 114 372T150 376T189 374T213 372Q222 383 238 400T265 436Q268 442 270 457T273 491T274 530T273 569T270 599T265 615Q265 625 260 642T247 676T226 705T200 718Q186 718 170 708T140 685T114 659T98 641V526Q98
516 89 509T59 501Q54 501 50 504T42 513Q38 518 34 526Q30 541 27 555Q25 567 23 580T21 603Q21 608 23 618T27 639Q30 651 34 667Z" />
<glyph unicode="4" glyph-name="four" horiz-adv-x="353" d="M91 749Q95 748 99 747Q103 745 107 744T117 737Q120 733 123 729Q125 725 127 721T129 713Q129 703 122 681T104 638Q104 633 102 621T98 595T93 569T91 552V441Q91 437 90 433Q88 425 80 415V341Q80
337 80 329T81 313T84 298T91 292Q93 289 101 288T122 285T148 283T177 281Q211 279 253 279V737Q260 740 267 743Q273 745 278 747T289 749Q298 749 305 745T317 736Q322 731 327 724V564V317V20V7Q323 0 319 -5Q315 -10 311 -13T302 -17H278L265 -4H253V230H191Q181
230 152 226T67 230Q39 230 27 251T9 298Q4 328 6 366Q9 391 12 411Q14 428 16 444T18 466L31 626L42 638Q45 663 48 683Q50 700 52 716T55 737Q60 746 65 749T77 752Q83 752 91 749Z" />
<glyph unicode="5" glyph-name="five" horiz-adv-x="359" d="M28 702Q28 709 31 714Q33 719 38 723T52 727Q57 732 65 734T82 738Q92 740 102 740L189 751L215 764Q235 760 253 757Q268 755 282 753T301 751Q308 748 313 744Q318 741 322 737T326 727Q326 718
318 710T301 702Q298 702 289 701T265 699T233 695T197 690Q155 685 102 678V516V503L90 355Q126 364 159 364Q187 364 216 355T264 317Q287 294 304 261T329 193T330 125T301 69Q273 46 242 28T180 0T123 -12T78 -5Q49 13 39 25T28 57Q28 66 27 73T25 84T28 91T40
94Q44 89 52 85T69 76T84 66T90 57Q94 52 104 52T125 51T144 50T152 45Q156 45 176 54T217 80T253 123T264 181Q259 213 246 238T217 279T184 302T152 305Q133 305 116 291T90 267H40Q35 272 29 277T19 288T13 301T16 317V342Q13 333 11 336Q9 338 10 352T16 404V492L28
516V702Z" />
<glyph unicode="6" glyph-name="six" horiz-adv-x="362" d="M264 352Q283 347 297 326T321 276T335 216T340 161Q340 137 328 109T301 56T271 15T251 -2Q251 -12 241 -13T201 -15Q187 -15 176 -13T156 -9Q146 -6 138 -2Q120 2 105 6Q92 10 80 13T62 22Q52 27 45
42T32 84T22 152T12 250Q9 285 13 333T26 434T46 539T69 635T89 708T101 743Q105 748 111 750T124 754Q131 756 138 756Q142 752 146 749Q150 747 154 745T164 743V719Q153 676 143 638Q135 606 126 574T112 528Q110 521 108 508T104 479T100 444T96 407Q92 364
88 313Q95 321 103 328Q118 341 138 352Q148 357 163 359T197 362T232 360T264 352ZM264 200Q254 220 247 243T240 276Q236 283 232 289Q228 294 224 298T214 302L188 289V302H164Q146 287 132 274Q120 263 111 253T101 237Q96 237 96 214T99 161T109 105T125 74Q154
54 174 46T214 48Q224 53 229 60T238 74T244 87T251 98Q251 108 253 113T257 122T262 129T264 137V200Z" />
<glyph unicode="7" glyph-name="seven" horiz-adv-x="365" d="M-13 757H271Q280 757 291 751T312 737T330 721T343 708Q343 703 341 680T337 630Q334 599 332 561L320 525Q320 522 319 505T314 462T308 403T301 336Q292 256 282 156V132L271 106Q271 98 264 88T257
60Q257 55 257 46T256 28T253 10T246 -4Q236 -12 228 -8T210 -4Q202 -4 197 -2Q192 0 189 2T185 9Q180 9 179 14T180 27Q182 35 185 46Q192 95 199 135Q205 170 211 201T222 242Q222 249 223 269T227 317T232 378T239 446Q247 525 257 622V647V696H62H12Q2 701
-4 706T-15 718Q-20 724 -24 732L-13 757Z" />
<glyph unicode="8" glyph-name="eight" horiz-adv-x="307" d="M283 143Q292 116 291 86T271 38Q263 20 251 10T213 -10Q200 -15 190 -15T169 -13T144 -7T107 2Q85 6 66 16T33 38T10 62T2 84Q-3 93 -3 114T-1 161T5 211T14 248Q18 261 26 279T43 314T60 342T72
354V389Q68 398 62 408T49 429T36 447T25 460Q22 481 19 500Q17 517 16 534T14 565Q14 578 16 587T21 606T28 624T37 648Q37 661 48 677T75 709T106 736T131 753H190Q203 749 216 744Q227 739 239 733T260 718Q269 713 271 705T274 683T273 652T271 612Q271 594
255 559T218 489Q195 448 166 401V377Q166 368 169 358T178 339Q183 328 190 319Q197 315 203 311Q208 307 214 304T225 295Q225 292 226 288Q228 280 236 272Q236 267 243 252T259 216T275 176T283 143ZM83 600Q83 591 83 581T84 561T88 543T95 531Q95 522 97
510T101 486Q104 473 107 460Q124 468 138 479Q150 489 161 504T178 541Q182 568 186 593T193 640T195 675T190 694Q181 703 165 696T131 671Q122 663 107 645T83 600ZM178 38Q213 46 223 63T225 107Q225 125 220 144T206 181T190 213T178 236Q173 245 167 253T156
269Q150 277 143 284Q138 288 134 292T126 300Q122 304 119 307Q102 274 90 243Q79 217 70 189T61 143Q65 125 75 105T101 69T136 43T178 38Z" />
<glyph unicode="9" glyph-name="nine" horiz-adv-x="374" d="M348 402Q346 358 344 322T342 280Q337 275 336 270T335 260T335 247T329 230Q329 225 329 209T328 174T324 139T317 118V93Q313 83 310 73Q308 65 306 57T304 43V-6Q299 -11 295 -11T285 -11T272 -8T255
-6Q241 -6 234 -3T222 6Q218 11 217 18L242 93Q242 107 244 119Q246 130 248 140T255 155Q255 160 257 181T261 228Q264 257 267 292V304V367Q234 334 201 331T137 340T82 375T43 416Q29 435 24 465T18 529T22 596T31 653Q31 676 41 694T63 725T88 745T105 752H155Q166
751 180 750Q191 748 207 747T242 740Q261 731 279 704T312 648T338 595T354 566Q354 561 352 557T348 549Q345 545 342 541Q345 537 348 533Q350 529 352 525T354 516L348 402ZM180 379Q203 383 221 406T251 459T267 522T267 578Q262 601 252 623T230 663T208
691T192 702Q183 702 174 700T158 696Q150 693 143 690L118 677Q111 666 107 651Q103 638 102 620T105 578Q105 555 109 519T123 451T147 396T180 379Z" />
<glyph unicode=":" glyph-name="colon" horiz-adv-x="207" d="M106 227Q112 227 120 226T141 218Q149 211 153 207T161 195T169 178T181 148Q184 130 175 119T151 100Q135 92 114 89Q108 82 93 83T57 100Q43 103 36 108T25 119T21 129T20 138Q20 142 21 150T25
169T31 189T39 208Q39 215 47 219T67 225Q79 227 96 227H106ZM106 431Q112 431 120 430T141 422Q149 414 153 410T161 399T169 382T181 352Q184 333 175 322T151 304Q135 296 114 293Q108 285 93 286T57 303Q43 306 36 311T25 322T21 333T20 342Q20 346 21 354T25
373T31 393T39 411Q39 419 47 422T67 428Q79 430 96 431H106Z" />
<glyph unicode=";" glyph-name="semicolon" horiz-adv-x="222" d="M86 87Q93 87 100 86Q106 85 114 83T131 76Q144 71 151 62T161 43Q165 32 165 18H176Q176 16 175 12Q173 5 165 -3Q165 -12 155 -27T131 -58Q116 -76 97 -95Q90 -102 84 -107Q79 -112 73 -115T63
-118Q59 -122 57 -122T52 -122T47 -120T40 -118Q32 -110 30 -102Q29 -98 29 -95L97 -37L108 -15Q101 -16 97 -14Q86 -12 86 -3Q77 -3 70 2Q66 5 63 8L52 18Q52 22 51 25T48 31T46 39T52 53Q52 61 57 67T69 79Q76 84 86 87ZM112 298Q119 298 126 297T147 289Q154
283 158 279T165 269T172 254T183 227Q186 210 177 200T155 183Q140 176 121 172Q114 167 101 168T67 182Q41 188 37 199T32 217Q32 225 36 245T49 280Q49 287 57 290T75 296Q86 298 102 298H112Z" />
<glyph unicode="=" glyph-name="equal" horiz-adv-x="578" d="M75 375L80 384L116 379L120 384L289 388L401 393Q410 393 418 394Q425 394 432 394T445 393Q456 389 462 382T476 361Q480 344 477 335T467 326Q466 325 443 324T383 321T305 318T224 316T156 315T116
317Q102 320 94 328T80 345Q74 355 71 366L75 375ZM84 259L89 268L124 263L129 268L294 272L405 277Q415 277 425 278Q433 278 441 278T454 277Q474 269 481 246Q488 229 486 220T476 210Q471 210 445 210T381 210T301 208T221 206T157 204T124 201Q109 197 99
204T84 222Q78 233 75 250L84 259Z" />
<glyph unicode="?" glyph-name="question" horiz-adv-x="328" d="M17 647Q21 651 25 657Q32 665 45 685Q48 690 60 700T87 722T114 741T133 750Q142 750 164 750T211 745T261 723T301 673Q315 639 315 596T307 515T289 448T274 414Q269 409 255 398T225 373T197
347T184 324Q179 314 179 287T178 231T177 180T172 157Q172 147 169 138T147 129Q136 129 129 135T116 149Q110 158 107 169L119 182L107 298Q106 302 108 308Q109 317 119 338Q119 352 128 364T154 390T191 418T237 454Q256 478 259 517T256 594T232 663T197 698Q173
709 154 705T122 690Q106 679 95 661L69 633V622V543Q69 534 66 520T45 506Q24 506 21 521T17 557V647ZM184 92Q199 85 210 76Q220 68 228 59T237 41Q237 21 224 5T172 -11Q132 -11 114 6T95 54Q95 68 104 75T126 87Q139 91 157 92H184Z" />
<glyph unicode="@" glyph-name="at" horiz-adv-x="608" d="M594 448V399V368L579 289H565Q565 283 563 278Q561 273 558 268T550 256Q544 250 534 240T510 219T480 201T447 193Q430 193 415 195T386 201Q371 205 358 209Q353 209 347 207Q342 205 334 202T314
193Q291 193 268 195T211 209Q200 215 188 228T164 256T146 284T139 303Q128 329 135 361T152 416Q158 434 175 454T211 492T248 524T272 544Q277 544 283 541T297 535Q305 531 314 527L344 513Q357 513 370 509Q381 506 394 499T418 479Q429 456 432 434T447 399L433
351Q433 338 431 327Q429 318 426 311T418 303Q418 298 416 293T410 282Q406 277 402 272Q407 268 412 264Q417 261 422 259T433 256Q444 256 450 259T460 268T467 282T477 303Q477 310 481 321T492 344T502 367T507 385V479L477 513V576Q477 587 459 601T418 640Q396
663 363 673T284 671Q251 671 226 652T168 608Q157 596 146 576T126 534T108 489T95 448Q89 430 89 395T90 322T98 253T108 209Q114 197 131 171T167 117T203 70T226 49H284Q290 55 305 68T336 95T368 119T389 129Q399 129 410 121T433 113V66Q427 60 415 51T388
33T362 16T344 1Q338 -5 334 -8T324 -12T305 -14T272 -14Q226 -14 192 -1T124 49Q107 61 91 85T61 136T37 187T22 224Q10 260 8 321T6 479Q12 521 34 562T83 637T138 698T182 736Q198 748 224 751T279 754T337 747T389 736Q416 729 445 706T497 657Q524 627 550
591L565 544Q570 537 575 527T585 505Q589 493 594 479V448ZM344 351Q344 357 346 365T351 381Q354 390 358 399Q358 405 356 413T351 430Q347 439 344 448Q340 448 336 450Q329 453 329 465Q317 465 301 472Q293 475 284 479Q267 453 253 428Q241 407 229 386T211
351Q211 346 210 336T208 316T211 297T226 289Q237 283 243 277T255 268T267 265T284 272Q296 272 307 282T329 303Q340 317 342 329T344 351Z" />
<glyph unicode="A" glyph-name="A" horiz-adv-x="309" d="M262 267Q262 265 263 254T266 228T271 193T277 153Q284 106 293 49Q289 36 284 25Q279 16 274 8T260 -4Q252 -7 246 -5T234 2Q228 6 224 13Q223 27 223 41Q223 53 223 66T224 91Q225 102 223 123T217
164Q213 188 209 215L94 207L86 13Q83 9 78 5Q73 2 67 -1T52 -7Q43 -9 37 -8T27 -5Q23 -2 20 2Q22 63 25 115Q26 137 27 159T30 201T33 235T37 258Q41 273 45 298T53 349T60 399T65 432Q66 442 68 458T71 491T74 523T77 549Q77 559 81 586T91 645T102 701T111 733Q113
738 118 742T128 748Q133 751 140 751Q150 743 160 734Q168 726 175 718T186 703Q188 696 191 680T196 647Q199 628 201 605Q218 530 230 469Q235 443 240 418T249 373T256 340T259 326Q259 323 259 316T260 299T261 280T262 267ZM204 264Q196 301 191 331Q186
357 182 379T178 406Q178 410 173 432T162 478Q155 506 146 541L106 267L204 264Z" />
<glyph unicode="B" glyph-name="B" horiz-adv-x="334" d="M284 286Q302 278 311 250T320 169Q320 138 313 112T295 67T275 38T261 27Q252 18 242 17T214 15Q205 10 185 6T144 -1T106 -6T84 -8Q79 -8 71 -8T55 -7T38 -4T25 3Q20 3 19 6T20 15Q21 20 25 27V251Q22
324 19 384Q18 409 17 434T15 480T14 515T13 534Q18 548 19 575T23 630Q24 663 25 700L37 711Q36 718 38 723Q39 728 41 731T49 735Q53 740 59 740T71 739Q77 737 84 735Q104 738 122 741Q137 743 153 745T178 747Q182 747 192 743T216 731T244 712T273 688Q286
675 293 647T301 585T298 519T284 464Q279 441 265 420T233 382Q214 363 190 346Q196 345 203 344Q208 342 214 341T226 334Q230 334 238 330T255 319T272 304T284 286ZM84 369Q110 377 135 390Q156 401 178 419T214 464Q231 517 232 559T226 629Q217 655 207 667T178
688Q169 693 155 693T128 692Q112 690 96 688L84 558V369ZM202 50Q214 71 225 95Q234 115 241 140T249 192Q244 219 236 237T218 267T198 286T178 299Q169 303 153 303T122 303Q104 302 84 299V50H96H119H202Z" />
<glyph unicode="C" glyph-name="C" horiz-adv-x="280" d="M84 408V120Q87 110 90 99Q92 90 94 80T96 60Q96 55 108 56T137 61Q155 65 179 72H251Q270 72 280 69T299 48Q299 39 294 33T281 21Q273 16 263 12Q225 9 191 6Q162 4 132 2T84 0Q61 5 49 18T31 46Q24
63 24 84L12 168V408V443V456L24 468V611H12Q11 625 13 638Q14 649 16 661T24 683Q28 692 42 704T76 728T117 747T156 755Q174 759 195 759T234 758T264 752T276 743Q285 725 271 716T239 707Q235 707 223 707T197 706T168 702T144 695Q130 695 119 688T100 671Q90
660 84 647V408Z" />
<glyph unicode="D" glyph-name="D" horiz-adv-x="316" d="M299 393Q303 348 300 310T291 243Q284 210 274 181V170L180 29L169 18Q164 13 151 9T121 2T88 -4T63 -6Q50 -6 41 -1T27 11Q21 19 17 29V64V252V287L29 440V474V733Q37 741 45 743Q49 744 53 744L75 756L122
733Q146 719 168 705Q187 693 207 679T241 651Q266 624 278 557T299 393ZM216 193Q216 198 219 227T226 294T231 373T228 440Q228 462 224 489T214 542T198 591T180 626Q171 640 158 652T131 675Q116 686 99 698L87 427V346V287L75 170L87 135V53H134L216 193Z"
/>
<glyph unicode="E" glyph-name="E" horiz-adv-x="295" d="M152 405Q161 405 168 407T181 410T191 411T201 405Q205 405 213 403T229 398T243 391T249 381Q249 372 244 367T231 360Q223 357 213 357L139 344Q134 344 128 340T116 331Q109 326 102 319L91 97V73Q91
63 92 60T102 49H213Q220 51 227 54Q233 56 238 58T249 60Q260 60 269 57T287 35Q287 26 281 20T268 8Q259 3 249 -1Q210 -5 177 -6Q148 -8 120 -7T78 -1Q64 -1 54 4T39 17Q32 25 29 35L16 196H29V357V381V418V467H16L29 503Q29 545 30 580Q31 610 33 638T40 675Q40
685 43 691T52 703Q57 708 64 712Q69 717 82 722T110 731T140 740T164 750Q173 750 195 750T240 749T281 745T299 737Q303 737 305 733T308 725T306 716T299 712Q299 707 294 705T281 702Q273 701 263 701H213L188 688Q178 688 168 686Q160 684 152 682T139 675Q130
670 123 664T111 653Q106 647 102 640V589V394L152 405Z" />
<glyph unicode="F" glyph-name="F" horiz-adv-x="304" d="M219 397Q226 396 231 392Q236 388 239 382T243 361Q248 353 244 347T235 336Q228 331 219 327H102V256L114 140V35Q114 30 110 24T101 13T89 3T78 -1Q70 -1 64 4T53 17Q48 25 44 35V92L32 515V525Q35
558 39 588Q42 614 46 639T56 678Q56 691 65 701T86 719T109 731T126 736Q130 736 151 738T196 742T240 746T265 748Q269 743 277 741T293 736T307 731T313 724Q313 716 311 712T307 705Q304 702 301 702Q258 698 224 694Q209 692 195 690T169 686T149 682T138
678Q129 678 124 672T117 659T115 643T114 630Q114 625 112 611T108 579Q105 560 102 537V503V385L219 397Z" />
<glyph unicode="G" glyph-name="G" horiz-adv-x="328" d="M97 562Q95 442 93 345Q92 304 92 264T91 190T90 135T90 107Q91 87 98 70T125 43Q135 39 152 40T187 46T219 55T237 63Q238 64 238 73T239 97T237 130T235 166Q232 209 228 264Q196 261 179 268T153 285T144
305T146 318Q149 321 164 323T197 327T233 330T259 331Q275 331 283 329T299 307Q301 300 302 278T304 226T304 163T301 101T296 50T288 22Q282 14 262 7T215 -4T159 -11T105 -11Q79 -9 63 8T37 46Q26 70 20 100L29 497Q31 544 35 585Q39 620 46 656T68 713Q82
733 110 743T166 754T216 751T240 737Q241 728 228 721T196 709T156 699T124 688Q111 683 106 663T98 620Q95 594 97 562Z" />
<glyph unicode="H" glyph-name="H" horiz-adv-x="325" d="M78 748Q87 738 95 737Q99 735 103 736L91 481V336H225V481V517V651V736Q229 739 234 742Q239 744 245 746T261 748Q270 748 276 745T288 736Q293 731 297 724L285 529V481L297 457V421V312L285 21Q281
13 276 8Q271 3 265 -1T249 -5Q240 -5 232 1Q228 4 225 8L212 93L225 105L212 274H139H78Q81 210 83 158Q84 136 84 115T84 76T82 47T78 33Q78 24 69 10T42 -5Q33 -14 25 -10Q21 -9 18 -5V81V129V178V202V226V262V274V324L30 384V481Q33 549 36 604Q37 627 38 650T40
691T41 721T42 736Q42 741 47 742T60 746L78 748V748Z" />
<glyph unicode="I" glyph-name="I" horiz-adv-x="125" d="M81 731L92 721V650V484V461V436V260L104 82V23Q104 14 91 13T67 11Q58 6 52 8T41 13Q36 17 33 23L44 47L33 59V153V366V436Q33 438 33 448T34 474T36 508T38 547Q41 593 44 650H33V673V731Q37 736 43
738T54 742Q60 744 67 744L81 731Z" />
<glyph unicode="J" glyph-name="J" horiz-adv-x="295" d="M214 747Q219 748 224 748Q229 748 234 747T244 742Q249 738 253 733T262 722Q266 716 269 710L272 644L271 628L267 615L268 565L267 543L268 468L275 462L277 451L268 436L269 399Q269 393 270 388Q271
383 271 378T272 371Q272 367 268 361Q266 358 263 356L269 323L275 295L272 139Q271 113 270 92Q269 73 267 56T262 34Q259 29 252 23T235 12T218 2T205 -3Q200 -4 182 -4T140 -2T92 2T53 8Q38 11 25 21T1 43T-13 68T-16 87Q-11 102 -1 102T17 96Q21 94 30 88T48
75Q59 67 70 59Q105 58 132 58Q155 58 175 58T196 61Q196 63 197 73T199 94L201 124L203 146L201 166L205 257L196 574L198 587L201 682Q200 689 200 697Q200 704 200 711T201 726Q202 734 204 738T208 744Q211 747 214 747Z" />
<glyph unicode="K" glyph-name="K" horiz-adv-x="307" d="M129 522L152 569L235 723Q238 729 242 734Q245 739 249 742T259 746Q263 746 269 742T281 733T290 721T294 710Q300 702 292 694Q288 690 282 687L200 522V498L118 321L129 298L235 134L259 74Q264 74
270 69T281 56Q287 48 294 38Q290 31 285 25Q280 20 274 14T259 3Q250 3 240 8T220 20Q209 28 200 38L129 180L70 262V134V121V27L68 19Q66 15 65 12T58 3H11L-1 15L11 216V239V287V358L22 369L11 522V557V582V664V735Q11 743 24 750T47 758Q51 758 55 755T63 746Q67
741 70 735L81 723V652V616V582V415L129 522Z" />
<glyph unicode="L" glyph-name="L" horiz-adv-x="286" d="M75 753Q85 745 94 737Q101 730 107 724T113 714Q113 710 112 703T110 688L108 668L110 517L113 498L105 478Q102 385 100 312Q99 280 98 250T97 196T96 157T96 141Q98 136 100 129T102 116Q102 113 102
110T101 103Q100 99 99 97Q98 86 99 77Q99 69 100 63T103 55Q105 54 129 58T184 67T241 75T276 76Q284 74 289 74T298 72T305 68T311 57Q314 49 314 45T311 39T306 36T299 32Q294 27 280 25T259 22Q256 22 238 19T196 11T149 3T114 2Q102 3 89 8T64 20T44 32T34
41Q32 43 32 60T31 97T31 134T31 156Q31 160 31 172T33 199T36 226T37 243Q36 247 36 274T36 334Q36 371 37 417L42 441Q40 447 39 452Q37 457 37 461T35 468L39 503Q40 564 42 613Q43 634 43 654T45 691T47 719T49 732Q50 736 54 740T63 747Q68 751 75 753Z" />
<glyph unicode="M" glyph-name="M" horiz-adv-x="380" d="M224 687L237 759Q244 762 250 765Q255 767 260 769T271 771Q280 771 286 768T298 759Q303 754 308 747V568Q313 563 316 537T324 480Q328 445 332 402L367 46V22Q363 11 358 3Q353 -4 347 -9T332 -15Q327
-15 323 -12T315 -3Q311 2 308 9V69L284 283L260 426L248 319Q248 305 247 292Q245 267 237 247Q237 244 237 235T235 212T233 181T230 147Q227 107 224 57V9Q220 2 215 -3Q210 -8 204 -11T188 -15Q179 -15 175 -13T168 -9Q165 -6 165 -3Q161 13 158 28Q156 40
154 52T152 69V176L118 306L105 391L94 473V366V115V57Q90 47 86 38Q82 30 78 22T69 9Q64 4 58 2T46 -2Q39 -4 33 -3V22V200V342V366V391V449L22 736Q25 738 29 741Q37 747 46 747H69L118 604L141 497L165 426L188 295L224 687Z" />
<glyph unicode="N" glyph-name="N" horiz-adv-x="337" d="M26 743Q30 746 35 749Q40 751 46 753T62 755Q67 750 70 750T75 749T79 748T87 743Q96 738 101 725T108 696Q111 678 111 658L123 620L148 572L172 462L197 389Q202 384 207 365T219 323Q225 297 233 267L221
719L233 743Q234 745 238 747Q242 748 249 748T270 743Q284 743 289 737T296 724Q297 716 294 706L307 12Q307 8 304 5Q298 -1 282 -1Q268 -6 260 -8T247 -10T236 -8T221 -1Q212 -1 205 21T193 72Q188 104 184 145L172 242L136 389L87 523V365V255V35Q86 25 82
17Q78 10 72 5T51 -1Q41 -1 36 2T29 11Q26 16 26 23V499V523V743V743Z" />
<glyph unicode="O" glyph-name="O" horiz-adv-x="319" d="M315 636V624L303 322V250V225V165Q303 144 300 124Q298 107 293 89T279 56Q270 29 243 13T170 -4Q147 -9 131 -5T101 8T75 29T49 56Q44 60 41 73T36 106T31 147T28 192Q25 245 25 310L37 455V540V636Q37
640 37 650T38 672T42 694T49 709Q58 727 73 736T97 745H122Q127 745 132 747T144 751L158 757H194Q203 757 213 756T242 745Q256 736 267 726T286 706Q296 695 303 685L315 636ZM170 44Q206 49 221 73T242 127Q247 160 242 201V310V648Q238 655 233 662Q223 675
206 685Q197 694 189 699T173 706Q165 709 158 709Q147 709 138 706Q130 704 123 699T110 685Q110 675 108 657T103 621Q100 600 97 576V370V201Q95 156 102 122Q105 107 110 93T123 68T142 51T170 44Z" />
<glyph unicode="P" glyph-name="P" horiz-adv-x="307" d="M223 727Q234 725 243 712T260 684Q268 666 273 645Q272 566 270 499Q269 470 268 442T266 388T264 344T261 316Q258 297 245 283T216 258Q198 246 178 237L88 231L92 31Q88 23 83 18Q73 6 55 3Q46 2 41
5T33 14Q29 19 29 27Q26 218 25 369Q24 433 24 495T24 607T24 688T26 723Q28 728 38 733T59 743Q72 747 88 752Q118 746 144 742Q167 737 189 733T223 727ZM196 340Q197 347 198 363T201 401T203 446T205 495Q207 552 208 621Q207 635 205 647Q203 658 200 668T188
683Q180 689 164 691T132 695Q113 696 92 695L88 283L164 287Q171 291 177 298Q182 304 187 314T196 340Z" />
<glyph unicode="Q" glyph-name="Q" horiz-adv-x="340" d="M303 644Q304 635 305 595T306 498T304 376T301 250T295 143T286 76Q277 34 258 17T217 -8Q218 -22 218 -34T220 -55Q221 -66 221 -75Q216 -80 212 -84Q202 -92 190 -95Q183 -97 176 -95T162 -89Q154 -85
147 -80Q146 -72 146 -62Q146 -54 146 -42T145 -16Q128 -14 111 -8T73 9Q58 15 49 31T33 65Q26 85 23 109Q24 260 27 383Q28 435 29 487T33 581T38 654T45 693Q51 710 73 721T118 739Q145 746 178 750Q188 746 199 742Q209 738 221 733T248 722Q277 711 287 691T303
644ZM229 117Q232 126 235 166T240 263T244 382T246 501T245 596T241 644Q232 667 212 678T173 697Q163 700 156 701T144 702Q139 702 135 700Q127 697 120 692Q114 687 109 680T103 662Q102 655 102 632T102 579T103 513T103 445T102 388T99 353Q96 336 95 304T94
236T94 169T95 125Q96 114 98 101T106 75T120 54T143 43Q142 78 142 106T142 139Q144 144 148 146T157 151Q162 153 168 153Q169 154 173 153Q180 151 193 142Q208 131 211 119T213 97V68Q219 79 221 91T229 117Z" />
<glyph unicode="R" glyph-name="R" horiz-adv-x="307" d="M294 36Q297 26 297 16Q297 8 295 0T283 -13Q274 -13 267 -15T254 -18T243 -19T233 -13Q233 -8 231 -7T227 -3L221 -1Q220 36 219 69Q217 97 216 123T209 158Q204 168 187 179T149 199Q126 210 98 220V23Q97
16 93 11Q89 6 82 3T61 -1Q51 -1 45 2T34 11Q29 16 25 23V36V282V294V515V540V601L12 675V712Q12 719 15 724Q17 729 22 733T36 737Q46 745 59 747Q66 748 73 748H98Q136 751 169 751Q197 751 222 749T258 737Q267 728 274 715T285 689T292 666T294 650Q294 645
294 632T292 601T290 562T288 518Q285 467 283 405Q279 390 275 377Q271 365 267 353T258 331Q258 326 245 316T215 295Q196 283 172 269Q169 266 167 263Q163 257 172 257Q200 242 223 229Q243 218 260 206T283 184Q283 179 284 171T288 153T292 135T294 122Q290
113 290 102T290 81T292 61T294 48V36ZM98 294Q98 297 101 300Q103 302 108 304T123 306Q128 306 137 311T158 324Q170 332 184 343Q191 357 196 369Q201 380 205 390T209 405V700H147H98V294Z" />
<glyph unicode="S" glyph-name="S" horiz-adv-x="350" d="M100 610Q97 606 94 601Q92 596 90 590T88 576Q92 567 100 550T117 515T133 481T146 462Q146 454 148 450T152 443Q155 440 158 440Q170 432 188 414T226 369T263 312T294 246Q307 216 312 186T318 130Q319
101 316 75Q308 50 273 28T169 -4Q135 -4 115 5T84 27T70 53T67 75Q62 84 60 101T58 137T60 170T67 190Q75 198 77 194T88 190Q97 190 106 183T124 166Q120 147 119 129Q117 114 118 99T124 75Q124 58 139 56T180 53Q206 53 223 68T249 111Q253 119 250 136T242
175T231 218T225 257Q225 274 207 300T166 351T120 398T88 428Q80 437 69 463T47 521T29 580T21 622Q25 639 34 659T57 697T90 728T134 747Q164 747 193 736T245 710T285 680T306 656Q310 648 312 620T315 562Q316 527 316 485Q312 482 308 479Q303 477 297 475T282
473Q274 473 269 475T258 479Q253 482 249 485V634Q249 642 230 661T169 689Q143 694 130 682T109 654Q101 636 100 610Z" />
<glyph unicode="T" glyph-name="T" horiz-adv-x="283" d="M-30 734L301 744Q304 742 308 739Q316 733 319 730Q322 725 326 721T330 706Q330 695 326 687T311 676Q306 675 284 675T238 675Q210 675 176 676Q183 592 188 524Q190 495 192 467T196 416T199 377T200
357Q200 339 205 323T206 287L198 262L204 20Q198 11 191 5Q185 -1 178 -5T164 -11Q156 -12 149 -9T136 -2Q129 2 123 8L130 264V343Q130 347 129 363T126 403T122 457T117 517Q111 588 104 676L-3 678Q-15 682 -25 686Q-33 690 -41 695T-50 707Q-52 713 -49 718T-41
727Q-37 731 -30 734Z" />
<glyph unicode="U" glyph-name="U" horiz-adv-x="347" d="M69 755Q71 753 73 752T75 745Q80 740 81 727T85 699Q86 682 87 662V378V366L99 355L87 331V320L99 83L123 59Q132 50 153 49T194 47Q210 56 220 69Q225 75 229 83V213L240 533H252V722Q256 725 261 729Q266
732 272 736T288 745Q293 745 296 743T304 739L312 733L324 686L312 662V650V438L300 414V402V296V284V237V225V213L288 71L276 59V36Q267 27 252 19T229 1H99Q81 1 68 8T45 24Q34 34 28 47V95V260V272V284V320V343V355V449V461V473V733Q28 738 33 741T45 749L63
757L69 755Z" />
<glyph unicode="V" glyph-name="V" horiz-adv-x="331" d="M212 423Q219 506 224 572Q226 600 228 627T233 677T236 713T239 731Q241 740 245 749T275 759Q288 760 295 756T305 745Q309 738 309 729L293 572L286 508L281 492V432L276 418L267 378L270 347Q268 342
267 338Q265 328 265 326Q265 324 264 315T262 295L260 267L250 220Q244 180 238 147Q233 118 227 91T216 51Q206 28 189 12T157 -7Q149 -9 144 -5T134 4Q130 10 127 18L100 160Q73 298 53 407Q44 453 36 498T21 578T10 635T6 658Q5 660 5 668T4 687Q3 698 3 711L-6
731Q-4 736 0 740Q6 747 19 752Q31 755 42 756T64 744Q69 737 70 727T71 707Q70 696 68 683L109 487Q109 478 110 471Q110 465 110 459T110 451Q109 449 111 441T117 425Q121 414 125 403L137 332Q138 323 139 314Q140 306 141 299T142 289Q142 285 147 265T159
221Q166 194 176 160L212 423Z" />
<glyph unicode="W" glyph-name="W" horiz-adv-x="413" d="M109 231Q117 265 123 293Q128 317 132 338T136 366Q136 371 137 384T141 411T144 436T146 450Q146 452 146 462T148 484T152 508T156 525Q158 531 159 535T163 541T173 545T193 547Q206 547 214 543T226
534Q230 529 232 522Q234 489 236 462Q238 439 239 419T243 395Q244 391 251 371T268 326Q279 298 291 263L311 652L312 678Q313 693 314 707Q315 719 316 730T319 749Q323 760 330 766T361 764Q373 759 378 748T384 722Q385 706 382 688L389 667L381 646L380 604L381
575L372 546L369 360L365 335L373 317L362 297V138L350 127L352 30Q347 21 340 15Q334 10 325 5T305 0Q293 -1 286 2T273 11Q268 16 265 23Q262 49 259 70Q257 88 256 104T254 124Q254 127 250 144T241 183T231 225T224 253Q221 261 218 272T210 295Q206 307 201
320L185 281L177 207Q175 200 174 193Q173 187 173 181T172 170Q172 165 169 154T161 128Q157 112 151 94Q150 78 148 64Q146 52 145 40T143 23Q142 12 130 6T101 -3Q92 -5 86 -1T75 10Q70 17 66 26Q62 59 59 86Q56 109 54 129T52 152Q52 155 51 165T47 187Q44
200 42 217L35 496L24 677L20 692L16 702Q14 708 13 714Q12 719 12 724T14 734Q19 742 22 746T43 750Q62 750 68 741T78 724Q80 719 82 708T86 684Q89 670 91 653Q93 614 96 581Q98 552 99 525T101 486Q101 480 101 466T102 433T103 392T105 347Q107 294 109 231Z"
/>
<glyph unicode="X" glyph-name="X" horiz-adv-x="371" d="M279 751Q279 769 316 751Q321 746 324 740T332 728Q336 721 340 714L304 678Q304 673 300 661T292 636T283 610T279 594Q274 589 270 580T262 559Q258 547 255 533Q251 516 247 501Q243 488 240 477T231
460Q231 455 227 445T218 425Q213 413 206 400Q209 396 212 392Q214 388 216 384T218 375Q218 370 222 355T232 321T244 287T255 267Q265 232 273 204Q280 180 285 159T291 133L297 113Q299 105 301 98T304 85Q307 68 310 53Q312 40 314 29T316 12Q309 8 302 4Q296
0 290 -4T279 -13Q274 -13 268 -11T256 -7Q249 -4 243 0Q240 17 237 32Q235 45 233 56T231 73Q227 87 224 102Q222 115 220 129T218 158Q213 167 207 187T195 227Q188 251 182 278L171 290L147 218L135 133L122 85Q118 65 114 47Q110 32 107 19T98 0Q98 -10 89
-11T62 -13Q48 -13 41 -8T30 5Q26 13 25 24Q25 29 27 32T31 40L37 48Q41 62 45 75Q49 86 53 99T62 121Q62 125 65 147T73 194T82 240T86 267Q89 274 93 280Q100 292 110 302Q110 307 115 322T128 355Q136 375 147 400Q142 405 134 426T118 471Q108 499 98 533Q97
537 96 542Q94 547 93 553T86 570Q81 579 73 600T57 645Q47 671 37 702Q34 706 31 710Q29 714 27 718T25 727Q16 736 22 739T37 751Q41 751 49 751T67 750T85 746T98 739Q102 739 107 728T116 701T125 672T135 654Q138 647 141 640Q143 634 145 628T147 617Q147
608 148 598T159 570Q164 565 165 556T169 535Q170 523 171 509L279 751Z" />
<glyph unicode="Y" glyph-name="Y" horiz-adv-x="289" d="M168 526L181 553Q190 595 199 630Q206 660 213 687T224 725Q230 743 242 750T275 749Q286 744 289 733T291 711Q290 698 286 682L230 517V493Q230 484 229 475T226 463Q224 460 219 444T208 410Q202 389
194 363Q191 323 189 290Q187 262 186 239T184 214Q183 212 183 206T183 191Q183 182 184 172L189 151L184 140L179 23Q177 17 173 13Q169 9 162 6T142 3Q129 2 123 8T113 21Q109 29 110 39L112 91L116 253L118 284L116 333Q110 336 102 354T85 398T67 457T48 524Q27
603 4 702L-2 707H-9Q-10 711 -10 716Q-10 720 -10 725T-6 735Q-1 746 15 750T49 749Q57 745 61 740T68 730Q70 724 70 718L152 460L168 526Z" />
<glyph unicode="Z" glyph-name="Z" horiz-adv-x="350" d="M71 749Q125 748 170 747Q189 746 208 746T243 744T271 741T288 737Q306 728 320 724T335 701Q335 699 330 687T317 658T297 620T275 576Q249 524 215 461L179 352L95 64H264Q274 57 280 50Q285 44 288
38T288 28Q288 23 282 19T269 11Q261 7 251 4H131Q113 4 99 2Q86 0 75 -2T59 -9Q50 -9 42 -4T26 9Q18 17 11 28L23 51L47 148L95 316L167 532Q176 541 190 564T218 613Q234 642 251 676L131 689H119H59Q54 689 48 693T38 702T32 714T35 725Q35 734 40 739T53 746Q61
749 71 749Z" />
<glyph unicode="[" glyph-name="bracketleft" horiz-adv-x="280" d="M112 664Q112 658 114 648T119 626Q122 614 126 601V462V369Q126 352 128 341T134 321Q138 312 142 307Q142 216 144 143Q145 112 146 82T149 27T153 -13T159 -32Q159 -44 168 -46T188 -48Q201
-48 212 -38T234 -17Q247 -17 251 -19T267 -32Q278 -44 278 -48T267 -65Q267 -70 264 -75T250 -85T221 -92T173 -95Q144 -95 126 -86T98 -64Q87 -50 81 -32V153L64 293L34 756L49 772Q49 795 51 808T64 834Q70 845 86 851T121 858T158 858T188 850Q200 850 215
845T244 832T265 816T267 803Q261 797 255 796T243 796T231 800T219 803H173Q161 808 150 807T131 800Q121 795 112 787V664Z" />
<glyph unicode="]" glyph-name="bracketright" horiz-adv-x="289" d="M184 760Q175 768 165 773Q157 778 146 779T123 776H77Q71 776 65 774T53 770T41 769T29 776Q24 781 31 789T51 804T80 817T108 823Q119 828 137 830T174 832T209 824T232 807Q243 794 245
781T247 745L262 729L232 266L215 126V-59Q209 -77 198 -91Q188 -103 170 -112T123 -122Q94 -122 76 -120T47 -113T33 -103T29 -92Q18 -79 18 -75T29 -59Q41 -48 45 -46T62 -44Q73 -55 84 -65T108 -75Q119 -75 128 -73T137 -59Q140 -56 142 -40T147 0T150 54T152
116Q154 189 154 280Q158 285 162 294Q165 302 167 313T170 342V435V574Q173 587 177 599Q179 610 181 620T184 637V760Z" />
<glyph unicode="a" glyph-name="a" horiz-adv-x="309" d="M262 267Q262 265 263 254T266 228T271 193T277 153Q284 106 293 49Q289 36 284 25Q279 16 274 8T260 -4Q252 -7 246 -5T234 2Q228 6 224 13Q223 27 223 41Q223 53 223 66T224 91Q225 102 223 123T217
164Q213 188 209 215L94 207L86 13Q83 9 78 5Q73 2 67 -1T52 -7Q43 -9 37 -8T27 -5Q23 -2 20 2Q22 63 25 115Q26 137 27 159T30 201T33 235T37 258Q41 273 45 298T53 349T60 399T65 432Q66 442 68 458T71 491T74 523T77 549Q77 559 81 586T91 645T102 701T111 733Q113
738 118 742T128 748Q133 751 140 751Q150 743 160 734Q168 726 175 718T186 703Q188 696 191 680T196 647Q199 628 201 605Q218 530 230 469Q235 443 240 418T249 373T256 340T259 326Q259 323 259 316T260 299T261 280T262 267ZM204 264Q196 301 191 331Q186
357 182 379T178 406Q178 410 173 432T162 478Q155 506 146 541L106 267L204 264Z" />
<glyph unicode="b" glyph-name="b" horiz-adv-x="334" d="M284 286Q302 278 311 250T320 169Q320 138 313 112T295 67T275 38T261 27Q252 18 242 17T214 15Q205 10 185 6T144 -1T106 -6T84 -8Q79 -8 71 -8T55 -7T38 -4T25 3Q20 3 19 6T20 15Q21 20 25 27V251Q22
324 19 384Q18 409 17 434T15 480T14 515T13 534Q18 548 19 575T23 630Q24 663 25 700L37 711Q36 718 38 723Q39 728 41 731T49 735Q53 740 59 740T71 739Q77 737 84 735Q104 738 122 741Q137 743 153 745T178 747Q182 747 192 743T216 731T244 712T273 688Q286
675 293 647T301 585T298 519T284 464Q279 441 265 420T233 382Q214 363 190 346Q196 345 203 344Q208 342 214 341T226 334Q230 334 238 330T255 319T272 304T284 286ZM84 369Q110 377 135 390Q156 401 178 419T214 464Q231 517 232 559T226 629Q217 655 207 667T178
688Q169 693 155 693T128 692Q112 690 96 688L84 558V369ZM202 50Q214 71 225 95Q234 115 241 140T249 192Q244 219 236 237T218 267T198 286T178 299Q169 303 153 303T122 303Q104 302 84 299V50H96H119H202Z" />
<glyph unicode="c" glyph-name="c" horiz-adv-x="280" d="M84 408V120Q87 110 90 99Q92 90 94 80T96 60Q96 55 108 56T137 61Q155 65 179 72H251Q270 72 280 69T299 48Q299 39 294 33T281 21Q273 16 263 12Q225 9 191 6Q162 4 132 2T84 0Q61 5 49 18T31 46Q24
63 24 84L12 168V408V443V456L24 468V611H12Q11 625 13 638Q14 649 16 661T24 683Q28 692 42 704T76 728T117 747T156 755Q174 759 195 759T234 758T264 752T276 743Q285 725 271 716T239 707Q235 707 223 707T197 706T168 702T144 695Q130 695 119 688T100 671Q90
660 84 647V408Z" />
<glyph unicode="d" glyph-name="d" horiz-adv-x="316" d="M299 393Q303 348 300 310T291 243Q284 210 274 181V170L180 29L169 18Q164 13 151 9T121 2T88 -4T63 -6Q50 -6 41 -1T27 11Q21 19 17 29V64V252V287L29 440V474V733Q37 741 45 743Q49 744 53 744L75 756L122
733Q146 719 168 705Q187 693 207 679T241 651Q266 624 278 557T299 393ZM216 193Q216 198 219 227T226 294T231 373T228 440Q228 462 224 489T214 542T198 591T180 626Q171 640 158 652T131 675Q116 686 99 698L87 427V346V287L75 170L87 135V53H134L216 193Z"
/>
<glyph unicode="e" glyph-name="e" horiz-adv-x="295" d="M152 405Q161 405 168 407T181 410T191 411T201 405Q205 405 213 403T229 398T243 391T249 381Q249 372 244 367T231 360Q223 357 213 357L139 344Q134 344 128 340T116 331Q109 326 102 319L91 97V73Q91
63 92 60T102 49H213Q220 51 227 54Q233 56 238 58T249 60Q260 60 269 57T287 35Q287 26 281 20T268 8Q259 3 249 -1Q210 -5 177 -6Q148 -8 120 -7T78 -1Q64 -1 54 4T39 17Q32 25 29 35L16 196H29V357V381V418V467H16L29 503Q29 545 30 580Q31 610 33 638T40 675Q40
685 43 691T52 703Q57 708 64 712Q69 717 82 722T110 731T140 740T164 750Q173 750 195 750T240 749T281 745T299 737Q303 737 305 733T308 725T306 716T299 712Q299 707 294 705T281 702Q273 701 263 701H213L188 688Q178 688 168 686Q160 684 152 682T139 675Q130
670 123 664T111 653Q106 647 102 640V589V394L152 405Z" />
<glyph unicode="f" glyph-name="f" horiz-adv-x="304" d="M219 397Q226 396 231 392Q236 388 239 382T243 361Q248 353 244 347T235 336Q228 331 219 327H102V256L114 140V35Q114 30 110 24T101 13T89 3T78 -1Q70 -1 64 4T53 17Q48 25 44 35V92L32 515V525Q35
558 39 588Q42 614 46 639T56 678Q56 691 65 701T86 719T109 731T126 736Q130 736 151 738T196 742T240 746T265 748Q269 743 277 741T293 736T307 731T313 724Q313 716 311 712T307 705Q304 702 301 702Q258 698 224 694Q209 692 195 690T169 686T149 682T138
678Q129 678 124 672T117 659T115 643T114 630Q114 625 112 611T108 579Q105 560 102 537V503V385L219 397Z" />
<glyph unicode="g" glyph-name="g" horiz-adv-x="328" d="M97 562Q95 442 93 345Q92 304 92 264T91 190T90 135T90 107Q91 87 98 70T125 43Q135 39 152 40T187 46T219 55T237 63Q238 64 238 73T239 97T237 130T235 166Q232 209 228 264Q196 261 179 268T153 285T144
305T146 318Q149 321 164 323T197 327T233 330T259 331Q275 331 283 329T299 307Q301 300 302 278T304 226T304 163T301 101T296 50T288 22Q282 14 262 7T215 -4T159 -11T105 -11Q79 -9 63 8T37 46Q26 70 20 100L29 497Q31 544 35 585Q39 620 46 656T68 713Q82
733 110 743T166 754T216 751T240 737Q241 728 228 721T196 709T156 699T124 688Q111 683 106 663T98 620Q95 594 97 562Z" />
<glyph unicode="h" glyph-name="h" horiz-adv-x="325" d="M78 748Q87 738 95 737Q99 735 103 736L91 481V336H225V481V517V651V736Q229 739 234 742Q239 744 245 746T261 748Q270 748 276 745T288 736Q293 731 297 724L285 529V481L297 457V421V312L285 21Q281
13 276 8Q271 3 265 -1T249 -5Q240 -5 232 1Q228 4 225 8L212 93L225 105L212 274H139H78Q81 210 83 158Q84 136 84 115T84 76T82 47T78 33Q78 24 69 10T42 -5Q33 -14 25 -10Q21 -9 18 -5V81V129V178V202V226V262V274V324L30 384V481Q33 549 36 604Q37 627 38 650T40
691T41 721T42 736Q42 741 47 742T60 746L78 748Z" />
<glyph unicode="i" glyph-name="i" horiz-adv-x="125" d="M81 731L92 721V650V484V461V436V260L104 82V23Q104 14 91 13T67 11Q58 6 52 8T41 13Q36 17 33 23L44 47L33 59V153V366V436Q33 438 33 448T34 474T36 508T38 547Q41 593 44 650H33V673V731Q37 736 43
738T54 742Q60 744 67 744L81 731Z" />
<glyph unicode="j" glyph-name="j" horiz-adv-x="295" d="M214 747Q219 748 224 748Q229 748 234 747T244 742Q249 738 253 733T262 722Q266 716 269 710L272 644L271 628L267 615L268 565L267 543L268 468L275 462L277 451L268 436L269 399Q269 393 270 388Q271
383 271 378T272 371Q272 367 268 361Q266 358 263 356L269 323L275 295L272 139Q271 113 270 92Q269 73 267 56T262 34Q259 29 252 23T235 12T218 2T205 -3Q200 -4 182 -4T140 -2T92 2T53 8Q38 11 25 21T1 43T-13 68T-16 87Q-11 102 -1 102T17 96Q21 94 30 88T48
75Q59 67 70 59Q105 58 132 58Q155 58 175 58T196 61Q196 63 197 73T199 94L201 124L203 146L201 166L205 257L196 574L198 587L201 682Q200 689 200 697Q200 704 200 711T201 726Q202 734 204 738T208 744Q211 747 214 747Z" />
<glyph unicode="k" glyph-name="k" horiz-adv-x="307" d="M129 522L152 569L235 723Q238 729 242 734Q245 739 249 742T259 746Q263 746 269 742T281 733T290 721T294 710Q300 702 292 694Q288 690 282 687L200 522V498L118 321L129 298L235 134L259 74Q264 74
270 69T281 56Q287 48 294 38Q290 31 285 25Q280 20 274 14T259 3Q250 3 240 8T220 20Q209 28 200 38L129 180L70 262V134V121V27L68 19Q66 15 65 12T58 3H11L-1 15L11 216V239V287V358L22 369L11 522V557V582V664V735Q11 743 24 750T47 758Q51 758 55 755T63 746Q67
741 70 735L81 723V652V616V582V415L129 522Z" />
<glyph unicode="l" glyph-name="l" horiz-adv-x="286" d="M75 753Q85 745 94 737Q101 730 107 724T113 714Q113 710 112 703T110 688L108 668L110 517L113 498L105 478Q102 385 100 312Q99 280 98 250T97 196T96 157T96 141Q98 136 100 129T102 116Q102 113 102
110T101 103Q100 99 99 97Q98 86 99 77Q99 69 100 63T103 55Q105 54 129 58T184 67T241 75T276 76Q284 74 289 74T298 72T305 68T311 57Q314 49 314 45T311 39T306 36T299 32Q294 27 280 25T259 22Q256 22 238 19T196 11T149 3T114 2Q102 3 89 8T64 20T44 32T34
41Q32 43 32 60T31 97T31 134T31 156Q31 160 31 172T33 199T36 226T37 243Q36 247 36 274T36 334Q36 371 37 417L42 441Q40 447 39 452Q37 457 37 461T35 468L39 503Q40 564 42 613Q43 634 43 654T45 691T47 719T49 732Q50 736 54 740T63 747Q68 751 75 753Z" />
<glyph unicode="m" glyph-name="m" horiz-adv-x="380" d="M224 687L237 759Q244 762 250 765Q255 767 260 769T271 771Q280 771 286 768T298 759Q303 754 308 747V568Q313 563 316 537T324 480Q328 445 332 402L367 46V22Q363 11 358 3Q353 -4 347 -9T332 -15Q327
-15 323 -12T315 -3Q311 2 308 9V69L284 283L260 426L248 319Q248 305 247 292Q245 267 237 247Q237 244 237 235T235 212T233 181T230 147Q227 107 224 57V9Q220 2 215 -3Q210 -8 204 -11T188 -15Q179 -15 175 -13T168 -9Q165 -6 165 -3Q161 13 158 28Q156 40
154 52T152 69V176L118 306L105 391L94 473V366V115V57Q90 47 86 38Q82 30 78 22T69 9Q64 4 58 2T46 -2Q39 -4 33 -3V22V200V342V366V391V449L22 736Q25 738 29 741Q37 747 46 747H69L118 604L141 497L165 426L188 295L224 687Z" />
<glyph unicode="n" glyph-name="n" horiz-adv-x="337" d="M26 743Q30 746 35 749Q40 751 46 753T62 755Q67 750 70 750T75 749T79 748T87 743Q96 738 101 725T108 696Q111 678 111 658L123 620L148 572L172 462L197 389Q202 384 207 365T219 323Q225 297 233 267L221
719L233 743Q234 745 238 747Q242 748 249 748T270 743Q284 743 289 737T296 724Q297 716 294 706L307 12Q307 8 304 5Q298 -1 282 -1Q268 -6 260 -8T247 -10T236 -8T221 -1Q212 -1 205 21T193 72Q188 104 184 145L172 242L136 389L87 523V365V255V35Q86 25 82
17Q78 10 72 5T51 -1Q41 -1 36 2T29 11Q26 16 26 23V499V523V743Z" />
<glyph unicode="o" glyph-name="o" horiz-adv-x="319" d="M315 636V624L303 322V250V225V165Q303 144 300 124Q298 107 293 89T279 56Q270 29 243 13T170 -4Q147 -9 131 -5T101 8T75 29T49 56Q44 60 41 73T36 106T31 147T28 192Q25 245 25 310L37 455V540V636Q37
640 37 650T38 672T42 694T49 709Q58 727 73 736T97 745H122Q127 745 132 747T144 751L158 757H194Q203 757 213 756T242 745Q256 736 267 726T286 706Q296 695 303 685L315 636ZM170 44Q206 49 221 73T242 127Q247 160 242 201V310V648Q238 655 233 662Q223 675
206 685Q197 694 189 699T173 706Q165 709 158 709Q147 709 138 706Q130 704 123 699T110 685Q110 675 108 657T103 621Q100 600 97 576V370V201Q95 156 102 122Q105 107 110 93T123 68T142 51T170 44Z" />
<glyph unicode="p" glyph-name="p" horiz-adv-x="307" d="M223 727Q234 725 243 712T260 684Q268 666 273 645Q272 566 270 499Q269 470 268 442T266 388T264 344T261 316Q258 297 245 283T216 258Q198 246 178 237L88 231L92 31Q88 23 83 18Q73 6 55 3Q46 2 41
5T33 14Q29 19 29 27Q26 218 25 369Q24 433 24 495T24 607T24 688T26 723Q28 728 38 733T59 743Q72 747 88 752Q118 746 144 742Q167 737 189 733T223 727ZM196 340Q197 347 198 363T201 401T203 446T205 495Q207 552 208 621Q207 635 205 647Q203 658 200 668T188
683Q180 689 164 691T132 695Q113 696 92 695L88 283L164 287Q171 291 177 298Q182 304 187 314T196 340Z" />
<glyph unicode="q" glyph-name="q" horiz-adv-x="340" d="M303 644Q304 635 305 595T306 498T304 376T301 250T295 143T286 76Q277 34 258 17T217 -8Q218 -22 218 -34T220 -55Q221 -66 221 -75Q216 -80 212 -84Q202 -92 190 -95Q183 -97 176 -95T162 -89Q154 -85
147 -80Q146 -72 146 -62Q146 -54 146 -42T145 -16Q128 -14 111 -8T73 9Q58 15 49 31T33 65Q26 85 23 109Q24 260 27 383Q28 435 29 487T33 581T38 654T45 693Q51 710 73 721T118 739Q145 746 178 750Q188 746 199 742Q209 738 221 733T248 722Q277 711 287 691T303
644ZM229 117Q232 126 235 166T240 263T244 382T246 501T245 596T241 644Q232 667 212 678T173 697Q163 700 156 701T144 702Q139 702 135 700Q127 697 120 692Q114 687 109 680T103 662Q102 655 102 632T102 579T103 513T103 445T102 388T99 353Q96 336 95 304T94
236T94 169T95 125Q96 114 98 101T106 75T120 54T143 43Q142 78 142 106T142 139Q144 144 148 146T157 151Q162 153 168 153Q169 154 173 153Q180 151 193 142Q208 131 211 119T213 97V68Q219 79 221 91T229 117Z" />
<glyph unicode="r" glyph-name="r" horiz-adv-x="307" d="M294 36Q297 26 297 16Q297 8 295 0T283 -13Q274 -13 267 -15T254 -18T243 -19T233 -13Q233 -8 231 -7T227 -3L221 -1Q220 36 219 69Q217 97 216 123T209 158Q204 168 187 179T149 199Q126 210 98 220V23Q97
16 93 11Q89 6 82 3T61 -1Q51 -1 45 2T34 11Q29 16 25 23V36V282V294V515V540V601L12 675V712Q12 719 15 724Q17 729 22 733T36 737Q46 745 59 747Q66 748 73 748H98Q136 751 169 751Q197 751 222 749T258 737Q267 728 274 715T285 689T292 666T294 650Q294 645
294 632T292 601T290 562T288 518Q285 467 283 405Q279 390 275 377Q271 365 267 353T258 331Q258 326 245 316T215 295Q196 283 172 269Q169 266 167 263Q163 257 172 257Q200 242 223 229Q243 218 260 206T283 184Q283 179 284 171T288 153T292 135T294 122Q290
113 290 102T290 81T292 61T294 48V36ZM98 294Q98 297 101 300Q103 302 108 304T123 306Q128 306 137 311T158 324Q170 332 184 343Q191 357 196 369Q201 380 205 390T209 405V700H147H98V294Z" />
<glyph unicode="s" glyph-name="s" horiz-adv-x="350" d="M100 610Q97 606 94 601Q92 596 90 590T88 576Q92 567 100 550T117 515T133 481T146 462Q146 454 148 450T152 443Q155 440 158 440Q170 432 188 414T226 369T263 312T294 246Q307 216 312 186T318 130Q319
101 316 75Q308 50 273 28T169 -4Q135 -4 115 5T84 27T70 53T67 75Q62 84 60 101T58 137T60 170T67 190Q75 198 77 194T88 190Q97 190 106 183T124 166Q120 147 119 129Q117 114 118 99T124 75Q124 58 139 56T180 53Q206 53 223 68T249 111Q253 119 250 136T242
175T231 218T225 257Q225 274 207 300T166 351T120 398T88 428Q80 437 69 463T47 521T29 580T21 622Q25 639 34 659T57 697T90 728T134 747Q164 747 193 736T245 710T285 680T306 656Q310 648 312 620T315 562Q316 527 316 485Q312 482 308 479Q303 477 297 475T282
473Q274 473 269 475T258 479Q253 482 249 485V634Q249 642 230 661T169 689Q143 694 130 682T109 654Q101 636 100 610Z" />
<glyph unicode="t" glyph-name="t" horiz-adv-x="283" d="M-30 734L301 744Q304 742 308 739Q316 733 319 730Q322 725 326 721T330 706Q330 695 326 687T311 676Q306 675 284 675T238 675Q210 675 176 676Q183 592 188 524Q190 495 192 467T196 416T199 377T200
357Q200 339 205 323T206 287L198 262L204 20Q198 11 191 5Q185 -1 178 -5T164 -11Q156 -12 149 -9T136 -2Q129 2 123 8L130 264V343Q130 347 129 363T126 403T122 457T117 517Q111 588 104 676L-3 678Q-15 682 -25 686Q-33 690 -41 695T-50 707Q-52 713 -49 718T-41
727Q-37 731 -30 734Z" />
<glyph unicode="u" glyph-name="u" horiz-adv-x="347" d="M69 755Q71 753 73 752T75 745Q80 740 81 727T85 699Q86 682 87 662V378V366L99 355L87 331V320L99 83L123 59Q132 50 153 49T194 47Q210 56 220 69Q225 75 229 83V213L240 533H252V722Q256 725 261 729Q266
732 272 736T288 745Q293 745 296 743T304 739L312 733L324 686L312 662V650V438L300 414V402V296V284V237V225V213L288 71L276 59V36Q267 27 252 19T229 1H99Q81 1 68 8T45 24Q34 34 28 47V95V260V272V284V320V343V355V449V461V473V733Q28 738 33 741T45 749L63
757L69 755Z" />
<glyph unicode="v" glyph-name="v" horiz-adv-x="331" d="M212 423Q219 506 224 572Q226 600 228 627T233 677T236 713T239 731Q241 740 245 749T275 759Q288 760 295 756T305 745Q309 738 309 729L293 572L286 508L281 492V432L276 418L267 378L270 347Q268 342
267 338Q265 328 265 326Q265 324 264 315T262 295L260 267L250 220Q244 180 238 147Q233 118 227 91T216 51Q206 28 189 12T157 -7Q149 -9 144 -5T134 4Q130 10 127 18L100 160Q73 298 53 407Q44 453 36 498T21 578T10 635T6 658Q5 660 5 668T4 687Q3 698 3 711L-6
731Q-4 736 0 740Q6 747 19 752Q31 755 42 756T64 744Q69 737 70 727T71 707Q70 696 68 683L109 487Q109 478 110 471Q110 465 110 459T110 451Q109 449 111 441T117 425Q121 414 125 403L137 332Q138 323 139 314Q140 306 141 299T142 289Q142 285 147 265T159
221Q166 194 176 160L212 423Z" />
<glyph unicode="w" glyph-name="w" horiz-adv-x="413" d="M109 231Q117 265 123 293Q128 317 132 338T136 366Q136 371 137 384T141 411T144 436T146 450Q146 452 146 462T148 484T152 508T156 525Q158 531 159 535T163 541T173 545T193 547Q206 547 214 543T226
534Q230 529 232 522Q234 489 236 462Q238 439 239 419T243 395Q244 391 251 371T268 326Q279 298 291 263L311 652L312 678Q313 693 314 707Q315 719 316 730T319 749Q323 760 330 766T361 764Q373 759 378 748T384 722Q385 706 382 688L389 667L381 646L380 604L381
575L372 546L369 360L365 335L373 317L362 297V138L350 127L352 30Q347 21 340 15Q334 10 325 5T305 0Q293 -1 286 2T273 11Q268 16 265 23Q262 49 259 70Q257 88 256 104T254 124Q254 127 250 144T241 183T231 225T224 253Q221 261 218 272T210 295Q206 307 201
320L185 281L177 207Q175 200 174 193Q173 187 173 181T172 170Q172 165 169 154T161 128Q157 112 151 94Q150 78 148 64Q146 52 145 40T143 23Q142 12 130 6T101 -3Q92 -5 86 -1T75 10Q70 17 66 26Q62 59 59 86Q56 109 54 129T52 152Q52 155 51 165T47 187Q44
200 42 217L35 496L24 677L20 692L16 702Q14 708 13 714Q12 719 12 724T14 734Q19 742 22 746T43 750Q62 750 68 741T78 724Q80 719 82 708T86 684Q89 670 91 653Q93 614 96 581Q98 552 99 525T101 486Q101 480 101 466T102 433T103 392T105 347Q107 294 109 231Z"
/>
<glyph unicode="x" glyph-name="x" horiz-adv-x="371" d="M279 751Q279 769 316 751Q321 746 324 740T332 728Q336 721 340 714L304 678Q304 673 300 661T292 636T283 610T279 594Q274 589 270 580T262 559Q258 547 255 533Q251 516 247 501Q243 488 240 477T231
460Q231 455 227 445T218 425Q213 413 206 400Q209 396 212 392Q214 388 216 384T218 375Q218 370 222 355T232 321T244 287T255 267Q265 232 273 204Q280 180 285 159T291 133L297 113Q299 105 301 98T304 85Q307 68 310 53Q312 40 314 29T316 12Q309 8 302 4Q296
0 290 -4T279 -13Q274 -13 268 -11T256 -7Q249 -4 243 0Q240 17 237 32Q235 45 233 56T231 73Q227 87 224 102Q222 115 220 129T218 158Q213 167 207 187T195 227Q188 251 182 278L171 290L147 218L135 133L122 85Q118 65 114 47Q110 32 107 19T98 0Q98 -10 89
-11T62 -13Q48 -13 41 -8T30 5Q26 13 25 24Q25 29 27 32T31 40L37 48Q41 62 45 75Q49 86 53 99T62 121Q62 125 65 147T73 194T82 240T86 267Q89 274 93 280Q100 292 110 302Q110 307 115 322T128 355Q136 375 147 400Q142 405 134 426T118 471Q108 499 98 533Q97
537 96 542Q94 547 93 553T86 570Q81 579 73 600T57 645Q47 671 37 702Q34 706 31 710Q29 714 27 718T25 727Q16 736 22 739T37 751Q41 751 49 751T67 750T85 746T98 739Q102 739 107 728T116 701T125 672T135 654Q138 647 141 640Q143 634 145 628T147 617Q147
608 148 598T159 570Q164 565 165 556T169 535Q170 523 171 509L279 751Z" />
<glyph unicode="y" glyph-name="y" horiz-adv-x="289" d="M168 526L181 553Q190 595 199 630Q206 660 213 687T224 725Q230 743 242 750T275 749Q286 744 289 733T291 711Q290 698 286 682L230 517V493Q230 484 229 475T226 463Q224 460 219 444T208 410Q202 389
194 363Q191 323 189 290Q187 262 186 239T184 214Q183 212 183 206T183 191Q183 182 184 172L189 151L184 140L179 23Q177 17 173 13Q169 9 162 6T142 3Q129 2 123 8T113 21Q109 29 110 39L112 91L116 253L118 284L116 333Q110 336 102 354T85 398T67 457T48 524Q27
603 4 702L-2 707H-9Q-10 711 -10 716Q-10 720 -10 725T-6 735Q-1 746 15 750T49 749Q57 745 61 740T68 730Q70 724 70 718L152 460L168 526Z" />
<glyph unicode="z" glyph-name="z" horiz-adv-x="350" d="M71 749Q125 748 170 747Q189 746 208 746T243 744T271 741T288 737Q306 728 320 724T335 701Q335 699 330 687T317 658T297 620T275 576Q249 524 215 461L179 352L95 64H264Q274 57 280 50Q285 44 288
38T288 28Q288 23 282 19T269 11Q261 7 251 4H131Q113 4 99 2Q86 0 75 -2T59 -9Q50 -9 42 -4T26 9Q18 17 11 28L23 51L47 148L95 316L167 532Q176 541 190 564T218 613Q234 642 251 676L131 689H119H59Q54 689 48 693T38 702T32 714T35 725Q35 734 40 739T53 746Q61
749 71 749Z" />
<glyph unicode="{" glyph-name="braceleft" horiz-adv-x="1180" d="M222 399L216 374H212L205 392L201 374L197 373L188 398H193L198 379L203 398H207L214 380L217 399H222ZM256 401L250 376H246L240 394L235 375H231L222 399H227L233 381L237 400H241L248 382L251
401H256ZM290 402L284 378L280 377L274 395L269 377H265L257 401H262L267 383L272 402H276L282 383L286 402H290ZM304 382V381V380Q303 379 302 379Q302 378 301 378Q300 378 300 379H298V380Q297 381 297 382V383L298 384Q299 385 299 385Q300 385 300 385T301
386L302 385H303Q304 384 304 383V382ZM317 400L318 379H314L313 400H309V403L313 404V406Q311 414 319 414H322L323 410H320Q318 410 318 409Q317 408 317 406V404H322V401L317 400ZM331 380H326L325 413L329 414L331 380ZM340 410L336 409V414H340V410ZM342 380H337L336
405H340L342 380ZM358 380Q356 380 356 380T353 381Q352 382 352 382T350 383Q348 384 348 385T347 387Q346 389 346 393V398Q347 400 349 402Q350 404 350 404T352 405Q354 406 357 406H361Q362 406 364 404L366 402Q366 401 366 401T367 399H363Q362 400 362
400T361 402Q360 402 359 402T357 403Q356 403 356 403T354 402Q354 402 352 400Q351 399 351 397Q350 396 350 393Q351 391 351 389Q352 388 352 388T353 386Q353 386 355 384H358H360Q361 385 361 385L363 387V389H368Q367 388 367 385L365 383Q364 382 364 382T362
381Q359 381 358 380ZM392 383L387 382L378 395L376 392V382H372L370 416H375V397L385 407H390L381 398L392 383ZM407 404H405Q402 404 399 400L400 383H396L394 407L399 408V404Q401 407 405 409Q406 409 407 408V404ZM421 388Q421 387 420 386V385Q419 384 419
384H417H416Q415 384 415 385Q414 386 414 386L413 387Q413 388 414 389V390Q415 391 415 391H417H418Q419 390 419 390Q420 389 420 389Q421 388 421 388ZM439 384Q436 384 435 385Q433 385 431 387Q430 388 430 389T428 391Q428 393 428 394T427 397Q427 401
428 402Q428 404 430 406L433 409Q435 410 438 410H442Q443 409 443 409T445 408Q447 408 447 406Q448 405 448 403L444 402Q444 404 442 406Q441 406 441 406T438 407Q437 407 437 407T435 406Q435 406 433 404Q433 403 433 403T432 401V397V393Q433 392 433 392T434
390L436 388H439H441Q442 388 442 388T443 389Q444 390 444 391V393H449Q449 391 449 391T448 389Q446 387 446 387Q444 385 443 385Q442 385 442 385T439 384ZM462 411H467L470 408Q471 407 473 404Q474 403 474 399Q474 395 473 393Q473 391 471 389Q469 387
468 387Q466 386 466 386T463 385Q461 385 461 385T458 386Q457 387 457 387T455 388Q454 389 454 390T452 392Q451 394 451 398Q451 402 452 403Q452 405 454 407Q455 410 457 410Q459 411 462 411ZM463 389Q465 389 466 390Q466 390 468 392V393Q469 394 469
395Q469 396 469 396T469 399V403Q468 404 468 404T467 406Q466 407 465 407Q464 408 462 408Q461 408 461 408T459 407Q459 407 457 405Q457 404 457 404T456 402Q456 401 456 401T456 398V394Q457 393 457 393T458 391Q458 391 460 389H463ZM513 388H508V404Q506
408 506 408Q506 410 504 410Q500 410 497 405L498 388H494L493 403Q493 407 492 408Q491 409 489 409Q487 409 483 405L484 387H480L478 411L483 412V409Q485 411 490 413Q495 413 497 408Q498 409 498 409T499 411Q500 412 501 412Q502 413 502 413H504Q512 415
512 405L513 388ZM542 424L522 387L519 389L539 426L542 424ZM554 412Q555 416 560 416Q563 416 565 415Q566 415 568 413Q570 411 570 409Q571 407 571 404V398Q569 396 569 394Q567 392 565 391Q564 391 564 391T561 390Q558 390 554 392L555 381H551L549 415H553L554
412ZM554 396Q556 394 561 394Q563 394 565 396Q567 400 567 404Q565 410 565 410Q563 414 560 412Q557 412 554 408V396ZM580 413Q583 417 587 417Q596 418 596 409L597 392H592L591 408Q591 412 590 412Q588 414 587 414Q582 412 580 409L581 392H577L575 425L579
426L580 413ZM612 418Q614 419 614 419T617 418L620 415Q622 413 623 411Q623 410 623 409T624 406Q624 402 623 401Q623 400 621 396Q619 394 618 394Q616 393 613 393H608Q606 395 604 396Q604 396 602 400Q601 401 601 405V410Q602 412 602 412T604 415Q604
417 607 417Q608 418 612 418ZM613 396Q615 396 616 397L618 399Q618 400 618 400T619 402V406V410Q618 411 618 411T617 413Q616 414 615 414Q614 415 612 415Q610 415 609 414Q609 414 607 412Q606 412 606 409Q605 408 605 405Q605 404 605 403T606 401Q606
400 608 398Q608 397 610 397Q611 396 613 396ZM639 394H636H633Q631 396 631 396Q630 396 630 398V401L629 415H626V418L629 419V425H633V419H637V416L633 415L634 401V399L635 398H636Q636 397 637 398H638H639V394ZM651 420H656Q658 419 660 417Q662 415 662
413Q663 412 663 411T664 408Q664 406 664 405T663 402Q663 400 661 398Q659 396 657 396Q656 395 653 395Q651 394 650 394T648 395Q645 397 644 398Q642 400 642 401Q641 403 641 404T640 407Q640 409 640 410T641 412Q641 413 643 417Q645 419 647 419Q648 420
651 420ZM652 398Q654 398 655 399Q657 399 657 401Q657 401 659 404V408Q659 411 658 412Q658 413 658 413T657 415Q656 415 656 415T654 416Q654 417 652 417Q650 417 649 416Q647 416 647 414Q646 413 646 413T645 411V407Q645 404 646 403Q646 402 646 402T647
400Q648 399 648 399T650 398H652ZM678 396Q667 394 667 403H671Q671 399 678 399Q680 399 682 401Q683 401 683 403V405Q682 405 681 406H679Q678 407 676 407Q674 408 672 408Q671 408 671 408T669 409Q668 410 668 411Q667 412 667 414V417L669 419Q670 420
670 420T672 421H676Q686 423 686 415H682Q680 418 676 418Q674 418 673 417Q671 415 671 415Q671 414 672 413Q673 412 675 412Q675 411 676 411H678Q680 411 680 411T682 410Q683 410 683 410T685 409L687 407V404V401Q686 400 686 400T685 398Q684 398 684 398T682
397Q681 396 678 396ZM715 432L696 395L693 397L712 434L715 432ZM736 420H733Q730 420 727 416L728 399H724L723 423H727V420Q730 424 733 424H735L736 420ZM755 403Q752 399 747 399H743Q741 401 741 401Q739 401 739 403Q738 404 738 406Q738 415 752 415H754V418Q754
419 753 420Q752 421 752 421Q751 421 751 421T748 421Q742 421 742 417H738Q738 425 748 425H753Q754 425 756 423Q756 423 758 421Q758 419 758 419T759 416L760 400H755V403ZM755 407V412H752Q742 412 742 406Q742 405 744 403H748Q751 403 752 404Q753 404
755 407ZM775 400Q766 400 764 408H768Q769 404 775 404Q778 404 779 405Q780 406 780 408V409L779 410Q778 411 776 411Q775 411 775 411T773 412Q770 412 769 413Q767 413 766 414Q765 414 765 416Q764 417 764 419V421Q765 422 765 422T766 424Q767 424 767
424T769 425Q770 426 773 426Q783 426 783 420H779Q777 423 773 423Q772 423 772 423T770 422Q768 420 768 419Q768 418 769 418V417H772Q772 416 775 416Q777 415 779 415Q780 414 782 414Q784 412 784 412V409V406Q783 405 783 405T782 403Q781 402 781 402T779
401Q778 401 777 401T775 400ZM805 405Q802 402 798 402Q798 402 794 402L791 405Q789 407 789 409Q788 410 788 414V419Q790 423 790 423Q791 426 793 426Q795 427 797 427Q802 427 804 425V436L808 437L810 403L805 402V405ZM805 410L804 421Q801 424 798 424Q796
424 793 421Q792 420 792 414Q792 411 794 407Q796 405 799 405Q802 405 805 410ZM819 432H815V437H819V432ZM821 403H816L815 428H819L821 403ZM836 403Q825 403 825 411H829Q829 407 836 407Q839 407 840 408Q841 409 841 411V412Q840 413 839 413Q839 414 837
414Q835 414 834 415Q831 415 830 416Q828 416 827 417Q826 417 826 419Q825 419 825 422V424Q826 425 826 425T827 427Q828 427 828 427T830 428Q831 429 834 429Q844 429 844 423L840 422Q839 426 834 426Q833 426 833 426T831 425Q829 423 829 422Q829 421 830
421V420Q832 420 832 419H836Q838 418 840 418Q841 417 841 417T843 416Q844 416 844 416T845 415V412V408Q845 408 843 406Q842 405 842 405T840 404Q839 404 838 404T836 403ZM861 405Q859 404 859 404T856 405Q855 406 854 406T852 407Q850 411 850 411Q849
413 849 417Q848 419 848 420T849 422Q851 426 851 426Q852 427 855 429Q856 430 860 430H864Q866 429 868 427Q870 425 871 423Q871 422 871 421T872 418V417L853 416Q853 415 853 414T854 412Q856 410 856 410L858 408H861H863Q865 409 865 409Q866 410 866 411Q867
411 867 413H871Q871 411 870 410Q870 409 868 407Q867 406 867 406T865 405H861ZM867 420Q865 425 864 425Q862 427 860 427Q857 427 855 425Q853 423 853 419L867 420ZM881 428Q883 430 888 432Q896 432 896 423L897 407H893L892 423Q892 425 892 425T891 427Q890
428 887 428Q885 428 881 424L882 406H877L876 430L880 431L881 428ZM912 433Q916 433 917 432Q919 432 921 430Q923 428 923 426Q924 424 924 420Q925 418 925 418T924 415Q922 411 922 411Q920 409 918 408Q917 407 914 407Q910 407 909 408Q907 408 905 410Q903
412 902 414Q902 415 902 416T901 419Q901 423 902 425Q902 427 904 429Q906 431 908 432Q909 432 910 432T912 433ZM913 411H916Q918 413 918 413Q919 414 919 414T920 416V420Q920 423 919 424Q919 425 919 425T918 427Q916 429 915 429H913H910Q908 427 908
427Q907 426 907 426T906 424V420Q906 417 907 415Q908 413 908 413Q910 411 911 411Q912 410 913 411ZM82 412L219 665L201 685L227 684L351 909L517 678L681 895L715 664L884 893L882 664L1022 486L756 481L797 598L831 588L806 517L952 519L845 652L849 784L724
614L744 465L576 466L583 456H420L241 639L141 451L257 454L254 419L82 412ZM456 706L355 846L271 687L456 706ZM275 656L435 492L528 491L467 611L517 673L275 656ZM686 625L683 634L523 629L511 609L574 475L686 625ZM658 810L551 664L680 670L658 810ZM636 500L706
498L691 575L636 500ZM108 324L102 84L1062 48L1056 405L108 324ZM235 294H310Q331 294 344 286T365 266T376 240T379 214Q379 200 376 185T365 156T344 134T309 125H235V294ZM270 154H304Q326 154 334 172T343 211Q343 230 339 240T329 256T317 263T304 265H270V154ZM530
264H440V229H523V199H440V155H534V125H406V294H530V264ZM726 125H693V266H692L661 125H626L595 266H594V125H561V294H613L644 161L674 294H726V125ZM834 299Q842 299 856 296T883 284T905 258T915 210Q915 180 906 162T883 135T856 123T834 120Q825 120 812 123T785
135T762 162T752 210Q752 240 761 257T784 284T811 296T834 299ZM834 150Q841 150 849 152T864 162T875 180T880 210Q880 228 876 239T864 257T849 266T834 269Q819 269 804 257T788 210Q788 174 803 162T834 150Z" />
<glyph unicode="|" glyph-name="bar" horiz-adv-x="1180" d="M222 399L216 374H212L205 392L201 374L197 373L188 398H193L198 379L203 398H207L214 380L217 399H222ZM256 401L250 376H246L240 394L235 375H231L222 399H227L233 381L237 400H241L248 382L251 401H256ZM290
402L284 378L280 377L274 395L269 377H265L257 401H262L267 383L272 402H276L282 383L286 402H290ZM304 382V381V380Q303 379 302 379Q302 378 301 378Q300 378 300 379H298V380Q297 381 297 382V383L298 384Q299 385 299 385Q300 385 300 385T301 386L302 385H303Q304
384 304 383V382ZM317 400L318 379H314L313 400H309V403L313 404V406Q311 414 319 414H322L323 410H320Q318 410 318 409Q317 408 317 406V404H322V401L317 400ZM331 380H326L325 413L329 414L331 380ZM340 410L336 409V414H340V410ZM342 380H337L336 405H340L342
380ZM358 380Q356 380 356 380T353 381Q352 382 352 382T350 383Q348 384 348 385T347 387Q346 389 346 393V398Q347 400 349 402Q350 404 350 404T352 405Q354 406 357 406H361Q362 406 364 404L366 402Q366 401 366 401T367 399H363Q362 400 362 400T361 402Q360
402 359 402T357 403Q356 403 356 403T354 402Q354 402 352 400Q351 399 351 397Q350 396 350 393Q351 391 351 389Q352 388 352 388T353 386Q353 386 355 384H358H360Q361 385 361 385L363 387V389H368Q367 388 367 385L365 383Q364 382 364 382T362 381Q359 381
358 380ZM392 383L387 382L378 395L376 392V382H372L370 416H375V397L385 407H390L381 398L392 383ZM407 404H405Q402 404 399 400L400 383H396L394 407L399 408V404Q401 407 405 409Q406 409 407 408V404ZM421 388Q421 387 420 386V385Q419 384 419 384H417H416Q415
384 415 385Q414 386 414 386L413 387Q413 388 414 389V390Q415 391 415 391H417H418Q419 390 419 390Q420 389 420 389Q421 388 421 388ZM439 384Q436 384 435 385Q433 385 431 387Q430 388 430 389T428 391Q428 393 428 394T427 397Q427 401 428 402Q428 404
430 406L433 409Q435 410 438 410H442Q443 409 443 409T445 408Q447 408 447 406Q448 405 448 403L444 402Q444 404 442 406Q441 406 441 406T438 407Q437 407 437 407T435 406Q435 406 433 404Q433 403 433 403T432 401V397V393Q433 392 433 392T434 390L436 388H439H441Q442
388 442 388T443 389Q444 390 444 391V393H449Q449 391 449 391T448 389Q446 387 446 387Q444 385 443 385Q442 385 442 385T439 384ZM462 411H467L470 408Q471 407 473 404Q474 403 474 399Q474 395 473 393Q473 391 471 389Q469 387 468 387Q466 386 466 386T463
385Q461 385 461 385T458 386Q457 387 457 387T455 388Q454 389 454 390T452 392Q451 394 451 398Q451 402 452 403Q452 405 454 407Q455 410 457 410Q459 411 462 411ZM463 389Q465 389 466 390Q466 390 468 392V393Q469 394 469 395Q469 396 469 396T469 399V403Q468
404 468 404T467 406Q466 407 465 407Q464 408 462 408Q461 408 461 408T459 407Q459 407 457 405Q457 404 457 404T456 402Q456 401 456 401T456 398V394Q457 393 457 393T458 391Q458 391 460 389H463ZM513 388H508V404Q506 408 506 408Q506 410 504 410Q500
410 497 405L498 388H494L493 403Q493 407 492 408Q491 409 489 409Q487 409 483 405L484 387H480L478 411L483 412V409Q485 411 490 413Q495 413 497 408Q498 409 498 409T499 411Q500 412 501 412Q502 413 502 413H504Q512 415 512 405L513 388ZM542 424L522
387L519 389L539 426L542 424ZM554 412Q555 416 560 416Q563 416 565 415Q566 415 568 413Q570 411 570 409Q571 407 571 404V398Q569 396 569 394Q567 392 565 391Q564 391 564 391T561 390Q558 390 554 392L555 381H551L549 415H553L554 412ZM554 396Q556 394
561 394Q563 394 565 396Q567 400 567 404Q565 410 565 410Q563 414 560 412Q557 412 554 408V396ZM580 413Q583 417 587 417Q596 418 596 409L597 392H592L591 408Q591 412 590 412Q588 414 587 414Q582 412 580 409L581 392H577L575 425L579 426L580 413ZM612
418Q614 419 614 419T617 418L620 415Q622 413 623 411Q623 410 623 409T624 406Q624 402 623 401Q623 400 621 396Q619 394 618 394Q616 393 613 393H608Q606 395 604 396Q604 396 602 400Q601 401 601 405V410Q602 412 602 412T604 415Q604 417 607 417Q608 418
612 418ZM613 396Q615 396 616 397L618 399Q618 400 618 400T619 402V406V410Q618 411 618 411T617 413Q616 414 615 414Q614 415 612 415Q610 415 609 414Q609 414 607 412Q606 412 606 409Q605 408 605 405Q605 404 605 403T606 401Q606 400 608 398Q608 397
610 397Q611 396 613 396ZM639 394H636H633Q631 396 631 396Q630 396 630 398V401L629 415H626V418L629 419V425H633V419H637V416L633 415L634 401V399L635 398H636Q636 397 637 398H638H639V394ZM651 420H656Q658 419 660 417Q662 415 662 413Q663 412 663 411T664
408Q664 406 664 405T663 402Q663 400 661 398Q659 396 657 396Q656 395 653 395Q651 394 650 394T648 395Q645 397 644 398Q642 400 642 401Q641 403 641 404T640 407Q640 409 640 410T641 412Q641 413 643 417Q645 419 647 419Q648 420 651 420ZM652 398Q654
398 655 399Q657 399 657 401Q657 401 659 404V408Q659 411 658 412Q658 413 658 413T657 415Q656 415 656 415T654 416Q654 417 652 417Q650 417 649 416Q647 416 647 414Q646 413 646 413T645 411V407Q645 404 646 403Q646 402 646 402T647 400Q648 399 648 399T650
398H652ZM678 396Q667 394 667 403H671Q671 399 678 399Q680 399 682 401Q683 401 683 403V405Q682 405 681 406H679Q678 407 676 407Q674 408 672 408Q671 408 671 408T669 409Q668 410 668 411Q667 412 667 414V417L669 419Q670 420 670 420T672 421H676Q686
423 686 415H682Q680 418 676 418Q674 418 673 417Q671 415 671 415Q671 414 672 413Q673 412 675 412Q675 411 676 411H678Q680 411 680 411T682 410Q683 410 683 410T685 409L687 407V404V401Q686 400 686 400T685 398Q684 398 684 398T682 397Q681 396 678 396ZM715
432L696 395L693 397L712 434L715 432ZM736 420H733Q730 420 727 416L728 399H724L723 423H727V420Q730 424 733 424H735L736 420ZM755 403Q752 399 747 399H743Q741 401 741 401Q739 401 739 403Q738 404 738 406Q738 415 752 415H754V418Q754 419 753 420Q752
421 752 421Q751 421 751 421T748 421Q742 421 742 417H738Q738 425 748 425H753Q754 425 756 423Q756 423 758 421Q758 419 758 419T759 416L760 400H755V403ZM755 407V412H752Q742 412 742 406Q742 405 744 403H748Q751 403 752 404Q753 404 755 407ZM775 400Q766
400 764 408H768Q769 404 775 404Q778 404 779 405Q780 406 780 408V409L779 410Q778 411 776 411Q775 411 775 411T773 412Q770 412 769 413Q767 413 766 414Q765 414 765 416Q764 417 764 419V421Q765 422 765 422T766 424Q767 424 767 424T769 425Q770 426 773
426Q783 426 783 420H779Q777 423 773 423Q772 423 772 423T770 422Q768 420 768 419Q768 418 769 418V417H772Q772 416 775 416Q777 415 779 415Q780 414 782 414Q784 412 784 412V409V406Q783 405 783 405T782 403Q781 402 781 402T779 401Q778 401 777 401T775
400ZM805 405Q802 402 798 402Q798 402 794 402L791 405Q789 407 789 409Q788 410 788 414V419Q790 423 790 423Q791 426 793 426Q795 427 797 427Q802 427 804 425V436L808 437L810 403L805 402V405ZM805 410L804 421Q801 424 798 424Q796 424 793 421Q792 420
792 414Q792 411 794 407Q796 405 799 405Q802 405 805 410ZM819 432H815V437H819V432ZM821 403H816L815 428H819L821 403ZM836 403Q825 403 825 411H829Q829 407 836 407Q839 407 840 408Q841 409 841 411V412Q840 413 839 413Q839 414 837 414Q835 414 834 415Q831
415 830 416Q828 416 827 417Q826 417 826 419Q825 419 825 422V424Q826 425 826 425T827 427Q828 427 828 427T830 428Q831 429 834 429Q844 429 844 423L840 422Q839 426 834 426Q833 426 833 426T831 425Q829 423 829 422Q829 421 830 421V420Q832 420 832 419H836Q838
418 840 418Q841 417 841 417T843 416Q844 416 844 416T845 415V412V408Q845 408 843 406Q842 405 842 405T840 404Q839 404 838 404T836 403ZM861 405Q859 404 859 404T856 405Q855 406 854 406T852 407Q850 411 850 411Q849 413 849 417Q848 419 848 420T849
422Q851 426 851 426Q852 427 855 429Q856 430 860 430H864Q866 429 868 427Q870 425 871 423Q871 422 871 421T872 418V417L853 416Q853 415 853 414T854 412Q856 410 856 410L858 408H861H863Q865 409 865 409Q866 410 866 411Q867 411 867 413H871Q871 411 870
410Q870 409 868 407Q867 406 867 406T865 405H861ZM867 420Q865 425 864 425Q862 427 860 427Q857 427 855 425Q853 423 853 419L867 420ZM881 428Q883 430 888 432Q896 432 896 423L897 407H893L892 423Q892 425 892 425T891 427Q890 428 887 428Q885 428 881
424L882 406H877L876 430L880 431L881 428ZM912 433Q916 433 917 432Q919 432 921 430Q923 428 923 426Q924 424 924 420Q925 418 925 418T924 415Q922 411 922 411Q920 409 918 408Q917 407 914 407Q910 407 909 408Q907 408 905 410Q903 412 902 414Q902 415
902 416T901 419Q901 423 902 425Q902 427 904 429Q906 431 908 432Q909 432 910 432T912 433ZM913 411H916Q918 413 918 413Q919 414 919 414T920 416V420Q920 423 919 424Q919 425 919 425T918 427Q916 429 915 429H913H910Q908 427 908 427Q907 426 907 426T906
424V420Q906 417 907 415Q908 413 908 413Q910 411 911 411Q912 410 913 411ZM82 412L219 665L201 685L227 684L351 909L517 678L681 895L715 664L884 893L882 664L1022 486L756 481L797 598L831 588L806 517L952 519L845 652L849 784L724 614L744 465L576 466L583
456H420L241 639L141 451L257 454L254 419L82 412ZM456 706L355 846L271 687L456 706ZM275 656L435 492L528 491L467 611L517 673L275 656ZM686 625L683 634L523 629L511 609L574 475L686 625ZM658 810L551 664L680 670L658 810ZM636 500L706 498L691 575L636 500ZM108
324L102 84L1062 48L1056 405L108 324ZM235 294H310Q331 294 344 286T365 266T376 240T379 214Q379 200 376 185T365 156T344 134T309 125H235V294ZM270 154H304Q326 154 334 172T343 211Q343 230 339 240T329 256T317 263T304 265H270V154ZM530 264H440V229H523V199H440V155H534V125H406V294H530V264ZM726
125H693V266H692L661 125H626L595 266H594V125H561V294H613L644 161L674 294H726V125ZM834 299Q842 299 856 296T883 284T905 258T915 210Q915 180 906 162T883 135T856 123T834 120Q825 120 812 123T785 135T762 162T752 210Q752 240 761 257T784 284T811 296T834
299ZM834 150Q841 150 849 152T864 162T875 180T880 210Q880 228 876 239T864 257T849 266T834 269Q819 269 804 257T788 210Q788 174 803 162T834 150Z" />
<glyph unicode="}" glyph-name="braceright" horiz-adv-x="1180" d="M222 399L216 374H212L205 392L201 374L197 373L188 398H193L198 379L203 398H207L214 380L217 399H222ZM256 401L250 376H246L240 394L235 375H231L222 399H227L233 381L237 400H241L248 382L251
401H256ZM290 402L284 378L280 377L274 395L269 377H265L257 401H262L267 383L272 402H276L282 383L286 402H290ZM304 382V381V380Q303 379 302 379Q302 378 301 378Q300 378 300 379H298V380Q297 381 297 382V383L298 384Q299 385 299 385Q300 385 300 385T301
386L302 385H303Q304 384 304 383V382ZM317 400L318 379H314L313 400H309V403L313 404V406Q311 414 319 414H322L323 410H320Q318 410 318 409Q317 408 317 406V404H322V401L317 400ZM331 380H326L325 413L329 414L331 380ZM340 410L336 409V414H340V410ZM342 380H337L336
405H340L342 380ZM358 380Q356 380 356 380T353 381Q352 382 352 382T350 383Q348 384 348 385T347 387Q346 389 346 393V398Q347 400 349 402Q350 404 350 404T352 405Q354 406 357 406H361Q362 406 364 404L366 402Q366 401 366 401T367 399H363Q362 400 362
400T361 402Q360 402 359 402T357 403Q356 403 356 403T354 402Q354 402 352 400Q351 399 351 397Q350 396 350 393Q351 391 351 389Q352 388 352 388T353 386Q353 386 355 384H358H360Q361 385 361 385L363 387V389H368Q367 388 367 385L365 383Q364 382 364 382T362
381Q359 381 358 380ZM392 383L387 382L378 395L376 392V382H372L370 416H375V397L385 407H390L381 398L392 383ZM407 404H405Q402 404 399 400L400 383H396L394 407L399 408V404Q401 407 405 409Q406 409 407 408V404ZM421 388Q421 387 420 386V385Q419 384 419
384H417H416Q415 384 415 385Q414 386 414 386L413 387Q413 388 414 389V390Q415 391 415 391H417H418Q419 390 419 390Q420 389 420 389Q421 388 421 388ZM439 384Q436 384 435 385Q433 385 431 387Q430 388 430 389T428 391Q428 393 428 394T427 397Q427 401
428 402Q428 404 430 406L433 409Q435 410 438 410H442Q443 409 443 409T445 408Q447 408 447 406Q448 405 448 403L444 402Q444 404 442 406Q441 406 441 406T438 407Q437 407 437 407T435 406Q435 406 433 404Q433 403 433 403T432 401V397V393Q433 392 433 392T434
390L436 388H439H441Q442 388 442 388T443 389Q444 390 444 391V393H449Q449 391 449 391T448 389Q446 387 446 387Q444 385 443 385Q442 385 442 385T439 384ZM462 411H467L470 408Q471 407 473 404Q474 403 474 399Q474 395 473 393Q473 391 471 389Q469 387
468 387Q466 386 466 386T463 385Q461 385 461 385T458 386Q457 387 457 387T455 388Q454 389 454 390T452 392Q451 394 451 398Q451 402 452 403Q452 405 454 407Q455 410 457 410Q459 411 462 411ZM463 389Q465 389 466 390Q466 390 468 392V393Q469 394 469
395Q469 396 469 396T469 399V403Q468 404 468 404T467 406Q466 407 465 407Q464 408 462 408Q461 408 461 408T459 407Q459 407 457 405Q457 404 457 404T456 402Q456 401 456 401T456 398V394Q457 393 457 393T458 391Q458 391 460 389H463ZM513 388H508V404Q506
408 506 408Q506 410 504 410Q500 410 497 405L498 388H494L493 403Q493 407 492 408Q491 409 489 409Q487 409 483 405L484 387H480L478 411L483 412V409Q485 411 490 413Q495 413 497 408Q498 409 498 409T499 411Q500 412 501 412Q502 413 502 413H504Q512 415
512 405L513 388ZM542 424L522 387L519 389L539 426L542 424ZM554 412Q555 416 560 416Q563 416 565 415Q566 415 568 413Q570 411 570 409Q571 407 571 404V398Q569 396 569 394Q567 392 565 391Q564 391 564 391T561 390Q558 390 554 392L555 381H551L549 415H553L554
412ZM554 396Q556 394 561 394Q563 394 565 396Q567 400 567 404Q565 410 565 410Q563 414 560 412Q557 412 554 408V396ZM580 413Q583 417 587 417Q596 418 596 409L597 392H592L591 408Q591 412 590 412Q588 414 587 414Q582 412 580 409L581 392H577L575 425L579
426L580 413ZM612 418Q614 419 614 419T617 418L620 415Q622 413 623 411Q623 410 623 409T624 406Q624 402 623 401Q623 400 621 396Q619 394 618 394Q616 393 613 393H608Q606 395 604 396Q604 396 602 400Q601 401 601 405V410Q602 412 602 412T604 415Q604
417 607 417Q608 418 612 418ZM613 396Q615 396 616 397L618 399Q618 400 618 400T619 402V406V410Q618 411 618 411T617 413Q616 414 615 414Q614 415 612 415Q610 415 609 414Q609 414 607 412Q606 412 606 409Q605 408 605 405Q605 404 605 403T606 401Q606
400 608 398Q608 397 610 397Q611 396 613 396ZM639 394H636H633Q631 396 631 396Q630 396 630 398V401L629 415H626V418L629 419V425H633V419H637V416L633 415L634 401V399L635 398H636Q636 397 637 398H638H639V394ZM651 420H656Q658 419 660 417Q662 415 662
413Q663 412 663 411T664 408Q664 406 664 405T663 402Q663 400 661 398Q659 396 657 396Q656 395 653 395Q651 394 650 394T648 395Q645 397 644 398Q642 400 642 401Q641 403 641 404T640 407Q640 409 640 410T641 412Q641 413 643 417Q645 419 647 419Q648 420
651 420ZM652 398Q654 398 655 399Q657 399 657 401Q657 401 659 404V408Q659 411 658 412Q658 413 658 413T657 415Q656 415 656 415T654 416Q654 417 652 417Q650 417 649 416Q647 416 647 414Q646 413 646 413T645 411V407Q645 404 646 403Q646 402 646 402T647
400Q648 399 648 399T650 398H652ZM678 396Q667 394 667 403H671Q671 399 678 399Q680 399 682 401Q683 401 683 403V405Q682 405 681 406H679Q678 407 676 407Q674 408 672 408Q671 408 671 408T669 409Q668 410 668 411Q667 412 667 414V417L669 419Q670 420
670 420T672 421H676Q686 423 686 415H682Q680 418 676 418Q674 418 673 417Q671 415 671 415Q671 414 672 413Q673 412 675 412Q675 411 676 411H678Q680 411 680 411T682 410Q683 410 683 410T685 409L687 407V404V401Q686 400 686 400T685 398Q684 398 684 398T682
397Q681 396 678 396ZM715 432L696 395L693 397L712 434L715 432ZM736 420H733Q730 420 727 416L728 399H724L723 423H727V420Q730 424 733 424H735L736 420ZM755 403Q752 399 747 399H743Q741 401 741 401Q739 401 739 403Q738 404 738 406Q738 415 752 415H754V418Q754
419 753 420Q752 421 752 421Q751 421 751 421T748 421Q742 421 742 417H738Q738 425 748 425H753Q754 425 756 423Q756 423 758 421Q758 419 758 419T759 416L760 400H755V403ZM755 407V412H752Q742 412 742 406Q742 405 744 403H748Q751 403 752 404Q753 404
755 407ZM775 400Q766 400 764 408H768Q769 404 775 404Q778 404 779 405Q780 406 780 408V409L779 410Q778 411 776 411Q775 411 775 411T773 412Q770 412 769 413Q767 413 766 414Q765 414 765 416Q764 417 764 419V421Q765 422 765 422T766 424Q767 424 767
424T769 425Q770 426 773 426Q783 426 783 420H779Q777 423 773 423Q772 423 772 423T770 422Q768 420 768 419Q768 418 769 418V417H772Q772 416 775 416Q777 415 779 415Q780 414 782 414Q784 412 784 412V409V406Q783 405 783 405T782 403Q781 402 781 402T779
401Q778 401 777 401T775 400ZM805 405Q802 402 798 402Q798 402 794 402L791 405Q789 407 789 409Q788 410 788 414V419Q790 423 790 423Q791 426 793 426Q795 427 797 427Q802 427 804 425V436L808 437L810 403L805 402V405ZM805 410L804 421Q801 424 798 424Q796
424 793 421Q792 420 792 414Q792 411 794 407Q796 405 799 405Q802 405 805 410ZM819 432H815V437H819V432ZM821 403H816L815 428H819L821 403ZM836 403Q825 403 825 411H829Q829 407 836 407Q839 407 840 408Q841 409 841 411V412Q840 413 839 413Q839 414 837
414Q835 414 834 415Q831 415 830 416Q828 416 827 417Q826 417 826 419Q825 419 825 422V424Q826 425 826 425T827 427Q828 427 828 427T830 428Q831 429 834 429Q844 429 844 423L840 422Q839 426 834 426Q833 426 833 426T831 425Q829 423 829 422Q829 421 830
421V420Q832 420 832 419H836Q838 418 840 418Q841 417 841 417T843 416Q844 416 844 416T845 415V412V408Q845 408 843 406Q842 405 842 405T840 404Q839 404 838 404T836 403ZM861 405Q859 404 859 404T856 405Q855 406 854 406T852 407Q850 411 850 411Q849
413 849 417Q848 419 848 420T849 422Q851 426 851 426Q852 427 855 429Q856 430 860 430H864Q866 429 868 427Q870 425 871 423Q871 422 871 421T872 418V417L853 416Q853 415 853 414T854 412Q856 410 856 410L858 408H861H863Q865 409 865 409Q866 410 866 411Q867
411 867 413H871Q871 411 870 410Q870 409 868 407Q867 406 867 406T865 405H861ZM867 420Q865 425 864 425Q862 427 860 427Q857 427 855 425Q853 423 853 419L867 420ZM881 428Q883 430 888 432Q896 432 896 423L897 407H893L892 423Q892 425 892 425T891 427Q890
428 887 428Q885 428 881 424L882 406H877L876 430L880 431L881 428ZM912 433Q916 433 917 432Q919 432 921 430Q923 428 923 426Q924 424 924 420Q925 418 925 418T924 415Q922 411 922 411Q920 409 918 408Q917 407 914 407Q910 407 909 408Q907 408 905 410Q903
412 902 414Q902 415 902 416T901 419Q901 423 902 425Q902 427 904 429Q906 431 908 432Q909 432 910 432T912 433ZM913 411H916Q918 413 918 413Q919 414 919 414T920 416V420Q920 423 919 424Q919 425 919 425T918 427Q916 429 915 429H913H910Q908 427 908
427Q907 426 907 426T906 424V420Q906 417 907 415Q908 413 908 413Q910 411 911 411Q912 410 913 411ZM82 412L219 665L201 685L227 684L351 909L517 678L681 895L715 664L884 893L882 664L1022 486L756 481L797 598L831 588L806 517L952 519L845 652L849 784L724
614L744 465L576 466L583 456H420L241 639L141 451L257 454L254 419L82 412ZM456 706L355 846L271 687L456 706ZM275 656L435 492L528 491L467 611L517 673L275 656ZM686 625L683 634L523 629L511 609L574 475L686 625ZM658 810L551 664L680 670L658 810ZM636 500L706
498L691 575L636 500ZM108 324L102 84L1062 48L1056 405L108 324ZM235 294H310Q331 294 344 286T365 266T376 240T379 214Q379 200 376 185T365 156T344 134T309 125H235V294ZM270 154H304Q326 154 334 172T343 211Q343 230 339 240T329 256T317 263T304 265H270V154ZM530
264H440V229H523V199H440V155H534V125H406V294H530V264ZM726 125H693V266H692L661 125H626L595 266H594V125H561V294H613L644 161L674 294H726V125ZM834 299Q842 299 856 296T883 284T905 258T915 210Q915 180 906 162T883 135T856 123T834 120Q825 120 812 123T785
135T762 162T752 210Q752 240 761 257T784 284T811 296T834 299ZM834 150Q841 150 849 152T864 162T875 180T880 210Q880 228 876 239T864 257T849 266T834 269Q819 269 804 257T788 210Q788 174 803 162T834 150Z" />
</font>
</defs>
</svg>
